<svg width="24" height="20" viewBox="0 0 24 20" fill="none" xmlns="http://www.w3.org/2000/svg">
<path d="M6.38679 0.292893C5.99627 -0.0976311 5.3631 -0.0976311 4.97258 0.292893C4.58206 0.683417 4.58206 1.31658 4.97258 1.70711L6.38679 0.292893ZM20.9726 17.7071C21.3631 18.0976 21.9963 18.0976 22.3868 17.7071C22.7773 17.3166 22.7773 16.6834 22.3868 16.2929L20.9726 17.7071ZM1.33497 11.8124L2.2022 11.3145H2.2022L1.33497 11.8124ZM1.33497 9.30039L2.2022 9.7983H2.2022L1.33497 9.30039ZM22.0246 9.3003L21.1573 9.79822V9.79822L22.0246 9.3003ZM21.3042 10.963C21.1567 11.4953 21.4685 12.0463 22.0007 12.1939C22.533 12.3414 23.084 12.0296 23.2316 11.4974L21.3042 10.963ZM15.326 2.17097C14.8039 1.99091 14.2347 2.2682 14.0546 2.79031C13.8746 3.31242 14.1519 3.88164 14.674 4.0617L15.326 2.17097ZM20.341 15.7009C20.7281 15.307 20.7226 14.6739 20.3288 14.2867C19.9349 13.8996 19.3017 13.9051 18.9146 14.2989L20.341 15.7009ZM8.20014 4.24391C8.71183 4.03607 8.95814 3.45278 8.7503 2.9411C8.54246 2.42941 7.95917 2.1831 7.44748 2.39094L8.20014 4.24391ZM14.4434 11.7235L15.3646 12.1125L15.3646 12.1125L14.4434 11.7235ZM4.97258 1.70711L13.9075 10.642L15.3217 9.22782L6.38679 0.292893L4.97258 1.70711ZM13.9075 10.642L20.9726 17.7071L22.3868 16.2929L15.3217 9.22782L13.9075 10.642ZM11.6798 17.5564C7.89339 17.5564 4.42466 15.1854 2.2022 11.3145L0.467746 12.3103C2.94527 16.6255 6.99415 19.5564 11.6798 19.5564V17.5564ZM0.467736 8.80248C-0.155916 9.88873 -0.155912 11.2241 0.467746 12.3103L2.2022 11.3145C1.9326 10.8449 1.9326 10.2679 2.2022 9.7983L0.467736 8.80248ZM21.1573 9.79822C21.3626 10.1557 21.4117 10.5756 21.3042 10.963L23.2316 11.4974C23.4799 10.6014 23.3668 9.62971 22.8918 8.80239L21.1573 9.79822ZM14.674 4.0617C17.2514 4.95054 19.5394 6.98022 21.1573 9.79822L22.8918 8.80239C21.0834 5.65274 18.4478 3.24756 15.326 2.17097L14.674 4.0617ZM18.9146 14.2989C16.8801 16.3688 14.367 17.5564 11.6798 17.5564V19.5564C14.9897 19.5564 17.9956 18.0871 20.341 15.7009L18.9146 14.2989ZM2.2022 9.7983C3.71737 7.15924 5.82167 5.21003 8.20014 4.24391L7.44748 2.39094C4.58162 3.55503 2.16221 5.85113 0.467735 8.80248L2.2022 9.7983ZM13.6194 10.0689C13.6255 10.0932 13.6311 10.1176 13.6363 10.1421L15.5929 9.72776C15.5826 9.67882 15.5713 9.63002 15.559 9.58137L13.6194 10.0689ZM13.6363 10.1421C13.7208 10.5413 13.6813 10.9574 13.5221 11.3344L15.3646 12.1125C15.683 11.3585 15.762 10.5261 15.5929 9.72775L13.6363 10.1421ZM13.5221 11.3344C13.3532 11.7345 13.0586 12.0688 12.6828 12.2866L13.686 14.0169C14.4375 13.5812 15.0267 12.9127 15.3646 12.1125L13.5221 11.3344ZM12.6828 12.2866C12.3071 12.5045 11.8707 12.5941 11.4395 12.5419L11.1993 14.5274C12.0616 14.6318 12.9345 14.4525 13.686 14.0169L12.6828 12.2866ZM11.4395 12.5419C11.0083 12.4898 10.6058 12.2987 10.2929 11.9975L8.90609 13.4386C9.53199 14.0409 10.3369 14.4231 11.1993 14.5274L11.4395 12.5419ZM10.2929 11.9975C9.97994 11.6963 9.77353 11.3015 9.70485 10.8727L7.73001 11.1889C7.86737 12.0466 8.28019 12.8363 8.90609 13.4386L10.2929 11.9975ZM9.70485 10.8727C9.63617 10.4438 9.70896 10.0042 9.91222 9.62042L8.14475 8.68445C7.73824 9.45209 7.59266 10.3312 7.73001 11.1889L9.70485 10.8727ZM9.91222 9.62042C10.1155 9.2366 10.4381 8.92937 10.8315 8.74517L9.98325 6.93395C9.19661 7.30235 8.55126 7.9168 8.14475 8.68445L9.91222 9.62042ZM10.8315 8.74517C11.2248 8.56098 11.6674 8.50982 12.0924 8.59943L12.505 6.64247C11.6551 6.46324 10.7699 6.56556 9.98325 6.93395L10.8315 8.74517Z" fill="#FCFCFC"/>
</svg>
