<svg width="14" height="8" viewBox="0 0 14 8" fill="none" xmlns="http://www.w3.org/2000/svg">
<path d="M13.7011 0.382816C13.6533 0.269065 13.5729 0.172012 13.47 0.103888C13.3671 0.035764 13.2464 -0.000382938 13.123 3.05944e-06H0.622986C0.499596 -0.000382938 0.378852 0.035764 0.27597 0.103888C0.173089 0.172012 0.0926747 0.269065 0.0448612 0.382816C-0.000167269 0.49826 -0.0115904 0.624094 0.0119132 0.745759C0.0354168 0.867425 0.0928865 0.979949 0.177674 1.07032L6.42767 7.32032C6.54714 7.43583 6.70681 7.5004 6.87299 7.5004C7.03916 7.5004 7.19884 7.43583 7.3183 7.32032L13.5683 1.07032C13.6531 0.979949 13.7106 0.867425 13.7341 0.745759C13.7576 0.624094 13.7461 0.49826 13.7011 0.382816Z" fill="black"/>
</svg>
