<svg width="19" height="16" viewBox="0 0 19 16" fill="none" xmlns="http://www.w3.org/2000/svg">
<path d="M12.0042 0.307625C11.6218 -0.0908693 10.9887 -0.103926 10.5903 0.278462C10.1918 0.66085 10.1787 1.29388 10.5611 1.69237L12.0042 0.307625ZM17.9997 8L18.7212 8.69237C19.0925 8.30545 19.0925 7.69455 18.7212 7.30763L17.9997 8ZM10.5611 14.3076C10.1787 14.7061 10.1918 15.3391 10.5903 15.7215C10.9887 16.1039 11.6218 16.0909 12.0042 15.6924L10.5611 14.3076ZM16.7328 9.03174C17.2851 9.03174 17.7328 8.58402 17.7328 8.03174C17.7328 7.47945 17.2851 7.03174 16.7328 7.03174V9.03174ZM0.999756 7.03174C0.447471 7.03174 -0.000244141 7.47945 -0.000244141 8.03174C-0.000244141 8.58402 0.447471 9.03174 0.999756 9.03174V7.03174ZM10.5611 1.69237L17.2782 8.69237L18.7212 7.30763L12.0042 0.307625L10.5611 1.69237ZM17.2782 7.30763L10.5611 14.3076L12.0042 15.6924L18.7212 8.69237L17.2782 7.30763ZM16.7328 7.03174H0.999756V9.03174H16.7328V7.03174Z" fill="#0576F0"/>
</svg>
