<svg width="32" height="32" viewBox="0 0 32 32" fill="none" xmlns="http://www.w3.org/2000/svg">
<path d="M13.6781 7.35905C14.0605 6.96055 14.0475 6.32752 13.649 5.94513C13.2505 5.56275 12.6174 5.5758 12.235 5.9743L13.6781 7.35905ZM4.00049 16L3.27895 15.3076C2.90767 15.6946 2.90767 16.3055 3.27895 16.6924L4.00049 16ZM12.235 26.0257C12.6174 26.4242 13.2505 26.4373 13.649 26.0549C14.0475 25.6725 14.0605 25.0395 13.6781 24.641L12.235 26.0257ZM5.68966 15.0423C5.13737 15.0423 4.68966 15.49 4.68966 16.0423C4.68966 16.5946 5.13737 17.0423 5.68966 17.0423V15.0423ZM26.6671 17.0423C27.2193 17.0423 27.6671 16.5946 27.6671 16.0423C27.6671 15.49 27.2193 15.0423 26.6671 15.0423V17.0423ZM12.235 5.9743L3.27895 15.3076L4.72203 16.6924L13.6781 7.35905L12.235 5.9743ZM3.27895 16.6924L12.235 26.0257L13.6781 24.641L4.72203 15.3076L3.27895 16.6924ZM5.68966 17.0423H26.6671V15.0423H5.68966V17.0423Z" fill="#262338"/>
</svg>
