<svg width="27" height="27" viewBox="0 0 27 27" fill="none" xmlns="http://www.w3.org/2000/svg">
<path d="M21.5392 10.319C21.5392 8.29446 20.6984 6.35287 19.2018 4.92132C17.7052 3.48978 15.6754 2.68555 13.5588 2.68555C11.4423 2.68555 9.41245 3.48978 7.91584 4.92132C6.41922 6.35287 5.57843 8.29446 5.57843 10.319C5.57843 16.6955 2.97486 19.8109 1.49609 21.066C1.26364 21.2634 1.41733 21.7691 1.72223 21.7691H8.67224C8.80749 21.7691 8.92514 21.8611 8.9654 21.9902C9.21706 22.7974 10.3108 25.5385 13.5588 25.5385C16.8068 25.5385 17.9006 22.7974 18.1523 21.9902C18.1925 21.8611 18.3102 21.7691 18.4454 21.7691H25.3954C25.7003 21.7691 25.854 21.2634 25.6216 21.066C24.1428 19.8109 21.5392 16.6955 21.5392 10.319Z" stroke="#79787F" stroke-width="2.3125" stroke-linecap="round" stroke-linejoin="round"/>
</svg>
