<svg width="34" height="31" viewBox="0 0 34 31" fill="none" xmlns="http://www.w3.org/2000/svg">
<path d="M26.7778 11.0194C26.7778 8.53893 25.7476 6.16004 23.9139 4.40608C22.0802 2.65211 19.5932 1.66675 17 1.66675C14.4068 1.66675 11.9198 2.65211 10.0861 4.40608C8.25238 6.16004 7.22222 8.53893 7.22222 11.0194C7.22222 19.3555 3.59053 23.1426 1.87622 24.4659C1.66748 24.627 1.79337 25.0484 2.05706 25.0484H11.0962C11.2132 25.0484 11.3151 25.1288 11.3482 25.2409C11.6064 26.1149 12.9075 29.6667 17 29.6667C21.0925 29.6667 22.3936 26.1149 22.6518 25.2409C22.6849 25.1288 22.7868 25.0484 22.9038 25.0484H31.9429C32.2066 25.0484 32.3325 24.627 32.1238 24.4659C30.4095 23.1426 26.7778 19.3555 26.7778 11.0194Z" stroke="#6E7191" stroke-width="2" stroke-linecap="round" stroke-linejoin="round"/>
</svg>
