<svg width="28" height="29" viewBox="0 0 28 29" fill="none" xmlns="http://www.w3.org/2000/svg">
<path d="M1.15625 6.6375L0.433946 5.73462C0.159666 5.95404 0 6.28625 0 6.6375H1.15625ZM13.875 24.9062L13.1527 25.8091L13.875 26.387L14.5973 25.8091L13.875 24.9062ZM1.15625 24.9062H0C0 25.3507 0.254775 25.7558 0.655375 25.9484C1.05598 26.1409 1.53148 26.0868 1.87855 25.8091L1.15625 24.9062ZM26.5938 6.6375H27.75C27.75 6.28625 27.5903 5.95404 27.3161 5.73462L26.5938 6.6375ZM26.5938 24.9062L25.8714 25.8091C26.2185 26.0868 26.694 26.1409 27.0946 25.9484C27.4952 25.7558 27.75 25.3507 27.75 24.9062H26.5938ZM12.7188 6.6375V24.9062H15.0312V6.6375H12.7188ZM2.3125 24.9062V6.6375H0V24.9062H2.3125ZM1.15625 6.6375C1.87855 7.54038 1.87835 7.54054 1.87816 7.54069C1.87811 7.54073 1.87793 7.54088 1.87784 7.54095C1.87764 7.54111 1.8775 7.54122 1.8774 7.5413C1.87721 7.54145 1.8772 7.54146 1.87739 7.54131C1.87775 7.54102 1.87886 7.54014 1.88072 7.53868C1.88442 7.53577 1.89107 7.53056 1.90056 7.52321C1.91956 7.5085 1.94991 7.48525 1.99086 7.45468C2.07282 7.39348 2.19679 7.30325 2.35665 7.19363C2.67735 6.97372 3.13718 6.67944 3.68767 6.38585C4.81503 5.78459 6.20504 5.25 7.51562 5.25V2.9375C5.64652 2.9375 3.85685 3.67479 2.59944 4.3454C1.95755 4.68775 1.42372 5.0294 1.04887 5.28645C0.860948 5.4153 0.711667 5.5238 0.607316 5.60172C0.555106 5.6407 0.514043 5.6721 0.48491 5.69466C0.470341 5.70594 0.458745 5.71501 0.450221 5.72172C0.445959 5.72508 0.442463 5.72784 0.439747 5.73C0.438389 5.73108 0.437225 5.732 0.436258 5.73277C0.435775 5.73316 0.43534 5.73351 0.434955 5.73381C0.434762 5.73397 0.43451 5.73417 0.434413 5.73425C0.434174 5.73444 0.433946 5.73462 1.15625 6.6375ZM7.51562 5.25C8.82621 5.25 10.2162 5.78459 11.3436 6.38585C11.8941 6.67944 12.3539 6.97372 12.6746 7.19363C12.8345 7.30325 12.9584 7.39348 13.0404 7.45468C13.0813 7.48525 13.1117 7.5085 13.1307 7.52321C13.1402 7.53056 13.1468 7.53577 13.1505 7.53868C13.1524 7.54014 13.1535 7.54102 13.1539 7.54131C13.154 7.54146 13.154 7.54145 13.1538 7.5413C13.1537 7.54122 13.1536 7.54111 13.1534 7.54095C13.1533 7.54088 13.1531 7.54073 13.1531 7.54069C13.1529 7.54054 13.1527 7.54038 13.875 6.6375C14.5973 5.73462 14.5971 5.73444 14.5968 5.73425C14.5967 5.73417 14.5965 5.73397 14.5963 5.73381C14.5959 5.73351 14.5955 5.73316 14.595 5.73277C14.594 5.732 14.5929 5.73108 14.5915 5.73C14.5888 5.72784 14.5853 5.72508 14.581 5.72172C14.5725 5.71501 14.5609 5.70594 14.5463 5.69466C14.5172 5.6721 14.4761 5.6407 14.4239 5.60172C14.3196 5.5238 14.1703 5.4153 13.9824 5.28645C13.6075 5.0294 13.0737 4.68775 12.4318 4.3454C11.1744 3.67479 9.38473 2.9375 7.51562 2.9375V5.25ZM13.875 24.9062C14.5973 24.0034 14.5971 24.0032 14.5968 24.003C14.5967 24.0029 14.5965 24.0027 14.5963 24.0026C14.5959 24.0023 14.5955 24.0019 14.595 24.0015C14.594 24.0008 14.5929 23.9998 14.5915 23.9988C14.5888 23.9966 14.5853 23.9938 14.581 23.9905C14.5725 23.9838 14.5609 23.9747 14.5463 23.9634C14.5172 23.9409 14.4761 23.9095 14.4239 23.8705C14.3196 23.7926 14.1703 23.6841 13.9824 23.5552C13.6075 23.2982 13.0737 22.9565 12.4318 22.6142C11.1744 21.9435 9.38473 21.2063 7.51562 21.2063V23.5188C8.82621 23.5188 10.2162 24.0533 11.3436 24.6546C11.8941 24.9482 12.3539 25.2425 12.6746 25.4624C12.8345 25.572 12.9584 25.6622 13.0404 25.7234C13.0813 25.754 13.1117 25.7773 13.1307 25.792C13.1402 25.7993 13.1468 25.8045 13.1505 25.8074C13.1524 25.8089 13.1535 25.8098 13.1539 25.8101C13.154 25.8102 13.154 25.8102 13.1538 25.81C13.1538 25.81 13.1536 25.8099 13.1534 25.8097C13.1533 25.8096 13.1531 25.8095 13.1531 25.8094C13.1529 25.8093 13.1527 25.8091 13.875 24.9062ZM7.51562 21.2063C5.64652 21.2063 3.85685 21.9435 2.59944 22.6142C1.95755 22.9565 1.42372 23.2982 1.04887 23.5552C0.860949 23.6841 0.711667 23.7926 0.607316 23.8705C0.555107 23.9095 0.514044 23.9409 0.484911 23.9634C0.470341 23.9747 0.458745 23.9838 0.450221 23.9905C0.445959 23.9938 0.442464 23.9966 0.439747 23.9988C0.438389 23.9998 0.437226 24.0008 0.436258 24.0015C0.435775 24.0019 0.43534 24.0023 0.434955 24.0026C0.434762 24.0027 0.43451 24.0029 0.434414 24.003C0.434174 24.0032 0.433947 24.0034 1.15625 24.9062C1.87855 25.8091 1.87835 25.8093 1.87816 25.8094C1.87811 25.8095 1.87793 25.8096 1.87784 25.8097C1.87764 25.8099 1.8775 25.81 1.8774 25.81C1.87721 25.8102 1.8772 25.8102 1.87739 25.8101C1.87775 25.8098 1.87886 25.8089 1.88072 25.8074C1.88442 25.8045 1.89107 25.7993 1.90056 25.792C1.91956 25.7773 1.94991 25.754 1.99086 25.7234C2.07282 25.6622 2.19679 25.572 2.35665 25.4624C2.67735 25.2425 3.13718 24.9482 3.68767 24.6546C4.81503 24.0533 6.20504 23.5188 7.51562 23.5188V21.2063ZM25.4375 6.6375V24.9062H27.75V6.6375H25.4375ZM13.875 6.6375C14.5973 7.54038 14.5971 7.54054 14.5969 7.54069C14.5969 7.54073 14.5967 7.54088 14.5966 7.54095C14.5964 7.54111 14.5963 7.54122 14.5962 7.5413C14.596 7.54145 14.596 7.54146 14.5961 7.54131C14.5965 7.54102 14.5976 7.54014 14.5995 7.53868C14.6032 7.53577 14.6098 7.53056 14.6193 7.52321C14.6383 7.5085 14.6687 7.48525 14.7096 7.45468C14.7916 7.39348 14.9155 7.30325 15.0754 7.19363C15.3961 6.97372 15.8559 6.67944 16.4064 6.38585C17.5338 5.78459 18.9238 5.25 20.2344 5.25V2.9375C18.3653 2.9375 16.5756 3.67479 15.3182 4.3454C14.6763 4.68775 14.1425 5.0294 13.7676 5.28645C13.5797 5.4153 13.4304 5.5238 13.3261 5.60172C13.2739 5.6407 13.2328 5.6721 13.2037 5.69466C13.1891 5.70594 13.1775 5.71501 13.169 5.72172C13.1647 5.72508 13.1612 5.72784 13.1585 5.73C13.1571 5.73108 13.156 5.732 13.155 5.73277C13.1545 5.73316 13.1541 5.73351 13.1537 5.73381C13.1535 5.73397 13.1533 5.73417 13.1532 5.73425C13.1529 5.73444 13.1527 5.73462 13.875 6.6375ZM20.2344 5.25C21.545 5.25 22.935 5.78459 24.0623 6.38585C24.6128 6.67944 25.0727 6.97372 25.3933 7.19363C25.5532 7.30325 25.6772 7.39348 25.7591 7.45468C25.8001 7.48525 25.8304 7.5085 25.8494 7.52321C25.8589 7.53056 25.8656 7.53577 25.8693 7.53868C25.8711 7.54014 25.8722 7.54102 25.8726 7.54131C25.8728 7.54146 25.8728 7.54145 25.8726 7.5413C25.8725 7.54122 25.8724 7.54111 25.8722 7.54095C25.8721 7.54088 25.8719 7.54073 25.8718 7.54069C25.8716 7.54054 25.8714 7.54038 26.5938 6.6375C27.3161 5.73462 27.3158 5.73444 27.3156 5.73425C27.3155 5.73417 27.3152 5.73397 27.315 5.73381C27.3147 5.73351 27.3142 5.73316 27.3137 5.73277C27.3128 5.732 27.3116 5.73108 27.3103 5.73C27.3075 5.72784 27.304 5.72508 27.2998 5.72172C27.2913 5.71501 27.2797 5.70594 27.2651 5.69466C27.236 5.6721 27.1949 5.6407 27.1427 5.60172C27.0383 5.5238 26.8891 5.4153 26.7011 5.28645C26.3263 5.0294 25.7925 4.68775 25.1506 4.3454C23.8932 3.67479 22.1035 2.9375 20.2344 2.9375V5.25ZM26.5938 24.9062C27.3161 24.0034 27.3158 24.0032 27.3156 24.003C27.3155 24.0029 27.3152 24.0027 27.315 24.0026C27.3147 24.0023 27.3142 24.0019 27.3137 24.0015C27.3128 24.0008 27.3116 23.9998 27.3103 23.9988C27.3075 23.9966 27.304 23.9938 27.2998 23.9905C27.2913 23.9838 27.2797 23.9747 27.2651 23.9634C27.236 23.9409 27.1949 23.9095 27.1427 23.8705C27.0383 23.7926 26.8891 23.6841 26.7011 23.5552C26.3263 23.2982 25.7925 22.9565 25.1506 22.6142C23.8932 21.9435 22.1035 21.2063 20.2344 21.2063V23.5188C21.545 23.5188 22.935 24.0533 24.0623 24.6546C24.6128 24.9482 25.0727 25.2425 25.3933 25.4624C25.5532 25.572 25.6772 25.6622 25.7591 25.7234C25.8001 25.754 25.8304 25.7773 25.8494 25.792C25.8589 25.7993 25.8656 25.8045 25.8693 25.8074C25.8711 25.8089 25.8722 25.8098 25.8726 25.8101C25.8728 25.8102 25.8728 25.8102 25.8726 25.81C25.8725 25.81 25.8724 25.8099 25.8722 25.8097C25.8721 25.8096 25.8719 25.8095 25.8718 25.8094C25.8717 25.8093 25.8714 25.8091 26.5938 24.9062ZM20.2344 21.2063C18.3653 21.2063 16.5756 21.9435 15.3182 22.6142C14.6763 22.9565 14.1425 23.2982 13.7676 23.5552C13.5797 23.6841 13.4304 23.7926 13.3261 23.8705C13.2739 23.9095 13.2328 23.9409 13.2037 23.9634C13.1891 23.9747 13.1775 23.9838 13.169 23.9905C13.1647 23.9938 13.1612 23.9966 13.1585 23.9988C13.1571 23.9998 13.156 24.0008 13.155 24.0015C13.1545 24.0019 13.1541 24.0023 13.1537 24.0026C13.1535 24.0027 13.1533 24.0029 13.1532 24.003C13.1529 24.0032 13.1527 24.0034 13.875 24.9062C14.5973 25.8091 14.5971 25.8093 14.5969 25.8094C14.5969 25.8095 14.5967 25.8096 14.5966 25.8097C14.5964 25.8099 14.5962 25.81 14.5962 25.81C14.596 25.8102 14.596 25.8102 14.5961 25.8101C14.5965 25.8098 14.5976 25.8089 14.5995 25.8074C14.6032 25.8045 14.6098 25.7993 14.6193 25.792C14.6383 25.7773 14.6687 25.754 14.7096 25.7234C14.7916 25.6622 14.9155 25.572 15.0754 25.4624C15.3961 25.2425 15.8559 24.9482 16.4064 24.6546C17.5338 24.0533 18.9238 23.5188 20.2344 23.5188V21.2063Z" fill="#79787F"/>
</svg>
