<svg width="32" height="26" viewBox="0 0 32 26" fill="none" xmlns="http://www.w3.org/2000/svg">
<path d="M1.33301 3.93333C1.33301 3.93333 4.99967 1 8.66634 1C12.333 1 15.9997 3.93333 15.9997 3.93333V25C15.9997 25 12.333 22.0667 8.66634 22.0667C4.99967 22.0667 1.33301 25 1.33301 25V3.93333Z" fill="#e0af7e"/>
<path d="M15.9997 3.93333C15.9997 3.93333 19.6663 1 23.333 1C26.9997 1 30.6663 3.93333 30.6663 3.93333V25C30.6663 25 26.9997 22.0667 23.333 22.0667C19.6663 22.0667 15.9997 25 15.9997 25V3.93333Z" fill="#e0af7e"/>
<path d="M1.33301 3.93333L1.02066 3.5429C0.902053 3.63779 0.833008 3.78144 0.833008 3.93333H1.33301ZM15.9997 25L15.6873 25.3904L15.9997 25.6403L16.312 25.3904L15.9997 25ZM1.33301 25H0.833008C0.833008 25.1922 0.943181 25.3674 1.11641 25.4507C1.28965 25.5339 1.49527 25.5105 1.64536 25.3904L1.33301 25ZM30.6663 3.93333H31.1663C31.1663 3.78144 31.0973 3.63779 30.9787 3.5429L30.6663 3.93333ZM30.6663 25L30.354 25.3904C30.5041 25.5105 30.7097 25.5339 30.8829 25.4507C31.0562 25.3674 31.1663 25.1922 31.1663 25H30.6663ZM15.4997 3.93333V25H16.4997V3.93333H15.4997ZM1.83301 25V3.93333H0.833008V25H1.83301ZM1.33301 3.93333C1.64536 4.32377 1.64528 4.32383 1.64521 4.32388C1.64521 4.32389 1.64516 4.32393 1.64515 4.32393C1.64514 4.32394 1.64518 4.32391 1.64528 4.32383C1.64547 4.32368 1.64589 4.32335 1.64652 4.32284C1.64779 4.32184 1.64993 4.32014 1.65293 4.31777C1.65894 4.31305 1.66839 4.30565 1.68117 4.29575C1.70673 4.27596 1.74559 4.24622 1.79687 4.20793C1.89945 4.13134 2.05153 4.0207 2.24598 3.88736C2.63531 3.62039 3.19223 3.26397 3.85997 2.90784C5.20685 2.18951 6.95377 1.5 8.66634 1.5V0.5C6.71225 0.5 4.7925 1.27716 3.38938 2.02549C2.68212 2.4027 2.0932 2.77961 1.68045 3.06264C1.47386 3.2043 1.31084 3.32283 1.19858 3.40665C1.14243 3.44857 1.09894 3.48185 1.06899 3.50503C1.05402 3.51662 1.04243 3.52569 1.03434 3.53206C1.0303 3.53525 1.02712 3.53776 1.02484 3.53957C1.0237 3.54048 1.02278 3.54121 1.02208 3.54177C1.02173 3.54204 1.02144 3.54228 1.0212 3.54247C1.02108 3.54256 1.02095 3.54267 1.02089 3.54272C1.02077 3.54281 1.02066 3.5429 1.33301 3.93333ZM8.66634 1.5C10.3789 1.5 12.1258 2.18951 13.4727 2.90784C14.1405 3.26397 14.6974 3.62039 15.0867 3.88736C15.2812 4.0207 15.4332 4.13134 15.5358 4.20793C15.5871 4.24622 15.626 4.27596 15.6515 4.29575C15.6643 4.30565 15.6737 4.31305 15.6797 4.31777C15.6828 4.32014 15.6849 4.32184 15.6862 4.32284C15.6868 4.32335 15.6872 4.32368 15.6874 4.32383C15.6875 4.32391 15.6875 4.32394 15.6875 4.32393C15.6875 4.32393 15.6875 4.32389 15.6875 4.32388C15.6874 4.32383 15.6873 4.32377 15.9997 3.93333C16.312 3.5429 16.3119 3.54281 16.3118 3.54272C16.3117 3.54267 16.3116 3.54256 16.3115 3.54247C16.3112 3.54228 16.311 3.54204 16.3106 3.54177C16.3099 3.54121 16.309 3.54048 16.3078 3.53957C16.3056 3.53776 16.3024 3.53525 16.2983 3.53206C16.2902 3.52569 16.2787 3.51662 16.2637 3.50503C16.2337 3.48185 16.1903 3.44857 16.1341 3.40665C16.0218 3.32283 15.8588 3.2043 15.6522 3.06264C15.2395 2.77961 14.6506 2.4027 13.9433 2.02549C12.5402 1.27716 10.6204 0.5 8.66634 0.5V1.5ZM15.9997 25C16.312 24.6096 16.3119 24.6095 16.3118 24.6094C16.3117 24.6093 16.3116 24.6092 16.3115 24.6091C16.3112 24.6089 16.311 24.6087 16.3106 24.6084C16.3099 24.6079 16.309 24.6071 16.3078 24.6062C16.3056 24.6044 16.3024 24.6019 16.2983 24.5987C16.2902 24.5924 16.2787 24.5833 16.2637 24.5717C16.2337 24.5485 16.1903 24.5152 16.1341 24.4733C16.0218 24.3895 15.8588 24.271 15.6522 24.1293C15.2395 23.8463 14.6506 23.4694 13.9433 23.0922C12.5402 22.3438 10.6204 21.5667 8.66634 21.5667V22.5667C10.3789 22.5667 12.1258 23.2562 13.4727 23.9745C14.1405 24.3306 14.6974 24.6871 15.0867 24.954C15.2812 25.0874 15.4332 25.198 15.5358 25.2746C15.5871 25.3129 15.626 25.3426 15.6515 25.3624C15.6643 25.3723 15.6737 25.3797 15.6797 25.3844C15.6828 25.3868 15.6849 25.3885 15.6862 25.3895C15.6868 25.39 15.6872 25.3903 15.6874 25.3905C15.6875 25.3906 15.6875 25.3906 15.6875 25.3906C15.6875 25.3906 15.6875 25.3906 15.6875 25.3906C15.6874 25.3905 15.6873 25.3904 15.9997 25ZM8.66634 21.5667C6.71225 21.5667 4.7925 22.3438 3.38938 23.0922C2.68212 23.4694 2.0932 23.8463 1.68045 24.1293C1.47386 24.271 1.31084 24.3895 1.19858 24.4733C1.14243 24.5152 1.09894 24.5485 1.06899 24.5717C1.05402 24.5833 1.04243 24.5924 1.03434 24.5987C1.0303 24.6019 1.02712 24.6044 1.02484 24.6062C1.0237 24.6071 1.02278 24.6079 1.02208 24.6084C1.02173 24.6087 1.02144 24.6089 1.0212 24.6091C1.02108 24.6092 1.02095 24.6093 1.02089 24.6094C1.02077 24.6095 1.02066 24.6096 1.33301 25C1.64536 25.3904 1.64528 25.3905 1.64521 25.3906C1.64521 25.3906 1.64516 25.3906 1.64515 25.3906C1.64514 25.3906 1.64518 25.3906 1.64528 25.3905C1.64547 25.3903 1.64589 25.39 1.64652 25.3895C1.64779 25.3885 1.64993 25.3868 1.65293 25.3844C1.65894 25.3797 1.66839 25.3723 1.68117 25.3624C1.70673 25.3426 1.74559 25.3129 1.79687 25.2746C1.89945 25.198 2.05153 25.0874 2.24598 24.954C2.63531 24.6871 3.19223 24.3306 3.85997 23.9745C5.20685 23.2562 6.95377 22.5667 8.66634 22.5667V21.5667ZM30.1663 3.93333V25H31.1663V3.93333H30.1663ZM15.9997 3.93333C16.312 4.32377 16.3119 4.32383 16.3119 4.32388C16.3119 4.32389 16.3118 4.32393 16.3118 4.32393C16.3118 4.32394 16.3118 4.32391 16.3119 4.32383C16.3121 4.32368 16.3126 4.32335 16.3132 4.32284C16.3145 4.32184 16.3166 4.32014 16.3196 4.31777C16.3256 4.31305 16.3351 4.30565 16.3478 4.29575C16.3734 4.27596 16.4123 4.24622 16.4635 4.20793C16.5661 4.13134 16.7182 4.0207 16.9126 3.88736C17.302 3.62039 17.8589 3.26397 18.5266 2.90784C19.8735 2.18951 21.6204 1.5 23.333 1.5V0.5C21.3789 0.5 19.4592 1.27716 18.056 2.02549C17.3488 2.4027 16.7599 2.77961 16.3471 3.06264C16.1405 3.2043 15.9775 3.32283 15.8652 3.40665C15.8091 3.44857 15.7656 3.48185 15.7357 3.50503C15.7207 3.51662 15.7091 3.52569 15.701 3.53206C15.697 3.53525 15.6938 3.53776 15.6915 3.53957C15.6904 3.54048 15.6894 3.54121 15.6887 3.54177C15.6884 3.54204 15.6881 3.54228 15.6879 3.54247C15.6877 3.54256 15.6876 3.54267 15.6876 3.54272C15.6874 3.54281 15.6873 3.5429 15.9997 3.93333ZM23.333 1.5C25.0456 1.5 26.7925 2.18951 28.1394 2.90784C28.8071 3.26397 29.364 3.62039 29.7534 3.88736C29.9478 4.0207 30.0999 4.13134 30.2025 4.20793C30.2538 4.24622 30.2926 4.27596 30.3182 4.29575C30.331 4.30565 30.3404 4.31305 30.3464 4.31777C30.3494 4.32014 30.3516 4.32184 30.3528 4.32284C30.3535 4.32335 30.3539 4.32368 30.3541 4.32383C30.3542 4.32391 30.3542 4.32394 30.3542 4.32393C30.3542 4.32393 30.3541 4.32389 30.3541 4.32388C30.3541 4.32383 30.354 4.32377 30.6663 3.93333C30.9787 3.5429 30.9786 3.54281 30.9785 3.54272C30.9784 3.54267 30.9783 3.54256 30.9781 3.54247C30.9779 3.54228 30.9776 3.54204 30.9773 3.54177C30.9766 3.54121 30.9757 3.54048 30.9745 3.53957C30.9722 3.53776 30.9691 3.53525 30.965 3.53206C30.9569 3.52569 30.9453 3.51662 30.9304 3.50503C30.9004 3.48185 30.8569 3.44857 30.8008 3.40665C30.6885 3.32283 30.5255 3.2043 30.3189 3.06264C29.9061 2.77961 29.3172 2.4027 28.61 2.02549C27.2068 1.27716 25.2871 0.5 23.333 0.5V1.5ZM30.6663 25C30.9787 24.6096 30.9786 24.6095 30.9785 24.6094C30.9784 24.6093 30.9783 24.6092 30.9781 24.6091C30.9779 24.6089 30.9776 24.6087 30.9773 24.6084C30.9766 24.6079 30.9757 24.6071 30.9745 24.6062C30.9722 24.6044 30.9691 24.6019 30.965 24.5987C30.9569 24.5924 30.9453 24.5833 30.9304 24.5717C30.9004 24.5485 30.8569 24.5152 30.8008 24.4733C30.6885 24.3895 30.5255 24.271 30.3189 24.1293C29.9061 23.8463 29.3172 23.4694 28.61 23.0922C27.2068 22.3438 25.2871 21.5667 23.333 21.5667V22.5667C25.0456 22.5667 26.7925 23.2562 28.1394 23.9745C28.8071 24.3306 29.364 24.6871 29.7534 24.954C29.9478 25.0874 30.0999 25.198 30.2025 25.2746C30.2538 25.3129 30.2926 25.3426 30.3182 25.3624C30.331 25.3723 30.3404 25.3797 30.3464 25.3844C30.3494 25.3868 30.3516 25.3885 30.3528 25.3895C30.3535 25.39 30.3539 25.3903 30.3541 25.3905C30.3542 25.3906 30.3542 25.3906 30.3542 25.3906C30.3542 25.3906 30.3541 25.3906 30.3541 25.3906C30.3541 25.3905 30.354 25.3904 30.6663 25ZM23.333 21.5667C21.3789 21.5667 19.4592 22.3438 18.056 23.0922C17.3488 23.4694 16.7599 23.8463 16.3471 24.1293C16.1405 24.271 15.9775 24.3895 15.8652 24.4733C15.8091 24.5152 15.7656 24.5485 15.7357 24.5717C15.7207 24.5833 15.7091 24.5924 15.701 24.5987C15.697 24.6019 15.6938 24.6044 15.6915 24.6062C15.6904 24.6071 15.6894 24.6079 15.6887 24.6084C15.6884 24.6087 15.6881 24.6089 15.6879 24.6091C15.6877 24.6092 15.6876 24.6093 15.6876 24.6094C15.6874 24.6095 15.6873 24.6096 15.9997 25C16.312 25.3904 16.3119 25.3905 16.3119 25.3906C16.3119 25.3906 16.3118 25.3906 16.3118 25.3906C16.3118 25.3906 16.3118 25.3906 16.3119 25.3905C16.3121 25.3903 16.3126 25.39 16.3132 25.3895C16.3145 25.3885 16.3166 25.3868 16.3196 25.3844C16.3256 25.3797 16.3351 25.3723 16.3478 25.3624C16.3734 25.3426 16.4123 25.3129 16.4635 25.2746C16.5661 25.198 16.7182 25.0874 16.9126 24.954C17.302 24.6871 17.8589 24.3306 18.5266 23.9745C19.8735 23.2562 21.6204 22.5667 23.333 22.5667V21.5667Z" fill="#FCFCFC"/>
</svg>
