<svg width="37" height="37" viewBox="0 0 37 37" fill="none" xmlns="http://www.w3.org/2000/svg">
<path d="M1.54166 8.01667C1.54166 8.01667 5.78125 4.625 10.0208 4.625C14.2604 4.625 18.5 8.01667 18.5 8.01667V32.375C18.5 32.375 14.2604 28.9833 10.0208 28.9833C5.78125 28.9833 1.54166 32.375 1.54166 32.375V8.01667Z" fill="#E0AF7E"/>
<path d="M18.5 8.01667C18.5 8.01667 22.7396 4.625 26.9792 4.625C31.2187 4.625 35.4583 8.01667 35.4583 8.01667V32.375C35.4583 32.375 31.2187 28.9833 26.9792 28.9833C22.7396 28.9833 18.5 32.375 18.5 32.375V8.01667Z" fill="#E0AF7E"/>
<path d="M1.54166 8.01667L1.22932 7.62623C1.11071 7.72112 1.04166 7.86477 1.04166 8.01667H1.54166ZM18.5 32.375L18.1876 32.7654L18.5 33.0153L18.8123 32.7654L18.5 32.375ZM1.54166 32.375H1.04166C1.04166 32.5672 1.15184 32.7424 1.32507 32.8257C1.4983 32.9089 1.70393 32.8855 1.85401 32.7654L1.54166 32.375ZM35.4583 8.01667H35.9583C35.9583 7.86477 35.8893 7.72112 35.7707 7.62623L35.4583 8.01667ZM35.4583 32.375L35.146 32.7654C35.2961 32.8855 35.5017 32.9089 35.6749 32.8257C35.8482 32.7424 35.9583 32.5672 35.9583 32.375H35.4583ZM18 8.01667V32.375H19V8.01667H18ZM2.04166 32.375V8.01667H1.04166V32.375H2.04166ZM1.54166 8.01667C1.85401 8.4071 1.85393 8.40716 1.85387 8.40721C1.85388 8.40721 1.85383 8.40725 1.85383 8.40724C1.85384 8.40724 1.85391 8.40719 1.85404 8.40708C1.8543 8.40687 1.85482 8.40646 1.85559 8.40584C1.85714 8.40462 1.8597 8.40259 1.86325 8.39979C1.87036 8.3942 1.88145 8.38551 1.8964 8.37394C1.92629 8.35079 1.97159 8.31612 2.03126 8.27157C2.15062 8.18245 2.32732 8.05391 2.55311 7.89908C3.0051 7.58914 3.65154 7.17543 4.4267 6.76201C5.98842 5.92909 8.0218 5.125 10.0208 5.125V4.125C7.78028 4.125 5.57407 5.01674 3.95611 5.87966C3.14143 6.31416 2.46299 6.74836 1.98758 7.07435C1.74966 7.2375 1.56202 7.37393 1.43297 7.47029C1.36843 7.51848 1.3185 7.55668 1.28423 7.58321C1.26708 7.59648 1.25385 7.60684 1.24466 7.61408C1.24006 7.6177 1.23647 7.62054 1.23391 7.62257C1.23263 7.62359 1.23161 7.62441 1.23084 7.62502C1.23046 7.62532 1.23014 7.62558 1.22988 7.62578C1.22976 7.62588 1.22961 7.62599 1.22955 7.62604C1.22943 7.62614 1.22932 7.62623 1.54166 8.01667ZM10.0208 5.125C12.0199 5.125 14.0532 5.92909 15.615 6.76201C16.3901 7.17543 17.0366 7.58914 17.4886 7.89908C17.7143 8.05391 17.891 8.18245 18.0104 8.27157C18.0701 8.31612 18.1154 8.35079 18.1453 8.37394C18.1602 8.38551 18.1713 8.3942 18.1784 8.39979C18.182 8.40259 18.1845 8.40462 18.1861 8.40584C18.1868 8.40646 18.1874 8.40687 18.1876 8.40708C18.1878 8.40719 18.1878 8.40724 18.1878 8.40724C18.1878 8.40725 18.1878 8.40721 18.1878 8.40721C18.1877 8.40716 18.1876 8.4071 18.5 8.01667C18.8123 7.62623 18.8122 7.62614 18.8121 7.62604C18.812 7.62599 18.8119 7.62588 18.8118 7.62578C18.8115 7.62558 18.8112 7.62532 18.8108 7.62502C18.8101 7.62441 18.809 7.62359 18.8077 7.62257C18.8052 7.62054 18.8016 7.6177 18.797 7.61408C18.7878 7.60684 18.7746 7.59648 18.7574 7.58321C18.7232 7.55668 18.6732 7.51848 18.6087 7.47029C18.4796 7.37393 18.292 7.2375 18.0541 7.07435C17.5787 6.74836 16.9002 6.31416 16.0856 5.87966C14.4676 5.01674 12.2614 4.125 10.0208 4.125V5.125ZM18.5 32.375C18.8123 31.9846 18.8122 31.9845 18.8121 31.9844C18.812 31.9843 18.8119 31.9842 18.8118 31.9841C18.8115 31.9839 18.8112 31.9837 18.8108 31.9833C18.8101 31.9827 18.809 31.9819 18.8077 31.9809C18.8052 31.9789 18.8016 31.976 18.797 31.9724C18.7878 31.9652 18.7746 31.9548 18.7574 31.9415C18.7232 31.915 18.6732 31.8768 18.6087 31.8286C18.4796 31.7323 18.292 31.5958 18.0541 31.4327C17.5787 31.1067 16.9002 30.6725 16.0856 30.238C14.4676 29.3751 12.2614 28.4833 10.0208 28.4833V29.4833C12.0199 29.4833 14.0532 30.2874 15.615 31.1203C16.3901 31.5338 17.0366 31.9475 17.4886 32.2574C17.7143 32.4122 17.891 32.5408 18.0104 32.6299C18.0701 32.6745 18.1154 32.7091 18.1453 32.7323C18.1602 32.7438 18.1713 32.7525 18.1784 32.7581C18.182 32.7609 18.1845 32.7629 18.1861 32.7642C18.1868 32.7648 18.1874 32.7652 18.1876 32.7654C18.1878 32.7655 18.1878 32.7656 18.1878 32.7656C18.1878 32.7656 18.1878 32.7655 18.1878 32.7655C18.1877 32.7655 18.1876 32.7654 18.5 32.375ZM10.0208 28.4833C7.78028 28.4833 5.57407 29.3751 3.95611 30.238C3.14143 30.6725 2.46299 31.1067 1.98758 31.4327C1.74966 31.5958 1.56202 31.7323 1.43297 31.8286C1.36843 31.8768 1.3185 31.915 1.28423 31.9415C1.26708 31.9548 1.25385 31.9652 1.24466 31.9724C1.24006 31.976 1.23647 31.9789 1.23391 31.9809C1.23263 31.9819 1.23161 31.9827 1.23084 31.9833C1.23046 31.9837 1.23014 31.9839 1.22988 31.9841C1.22976 31.9842 1.22961 31.9843 1.22955 31.9844C1.22943 31.9845 1.22932 31.9846 1.54166 32.375C1.85401 32.7654 1.85393 32.7655 1.85387 32.7655C1.85387 32.7655 1.85383 32.7656 1.85383 32.7656C1.85384 32.7656 1.85391 32.7655 1.85404 32.7654C1.8543 32.7652 1.85482 32.7648 1.85559 32.7642C1.85714 32.7629 1.8597 32.7609 1.86325 32.7581C1.87036 32.7525 1.88145 32.7438 1.8964 32.7323C1.92629 32.7091 1.97159 32.6745 2.03126 32.6299C2.15062 32.5408 2.32732 32.4122 2.55311 32.2574C3.0051 31.9475 3.65154 31.5338 4.4267 31.1203C5.98842 30.2874 8.0218 29.4833 10.0208 29.4833V28.4833ZM34.9583 8.01667V32.375H35.9583V8.01667H34.9583ZM18.5 8.01667C18.8123 8.4071 18.8123 8.40716 18.8122 8.40721C18.8122 8.40721 18.8122 8.40725 18.8122 8.40724C18.8122 8.40724 18.8122 8.40719 18.8124 8.40708C18.8126 8.40687 18.8132 8.40646 18.8139 8.40584C18.8155 8.40462 18.818 8.40259 18.8216 8.39979C18.8287 8.3942 18.8398 8.38551 18.8547 8.37394C18.8846 8.35079 18.9299 8.31612 18.9896 8.27157C19.109 8.18245 19.2857 8.05391 19.5114 7.89908C19.9634 7.58914 20.6099 7.17543 21.385 6.76201C22.9468 5.92909 24.9801 5.125 26.9792 5.125V4.125C24.7386 4.125 22.5324 5.01674 20.9144 5.87966C20.0998 6.31416 19.4213 6.74836 18.9459 7.07435C18.708 7.2375 18.5203 7.37393 18.3913 7.47029C18.3268 7.51848 18.2768 7.55668 18.2426 7.58321C18.2254 7.59648 18.2122 7.60684 18.203 7.61408C18.1984 7.6177 18.1948 7.62054 18.1922 7.62257C18.191 7.62359 18.1899 7.62441 18.1892 7.62502C18.1888 7.62532 18.1885 7.62558 18.1882 7.62578C18.1881 7.62588 18.1879 7.62599 18.1879 7.62604C18.1878 7.62614 18.1876 7.62623 18.5 8.01667ZM26.9792 5.125C28.9782 5.125 31.0116 5.92909 32.5733 6.76201C33.3485 7.17543 33.9949 7.58914 34.4469 7.89908C34.6727 8.05391 34.8494 8.18245 34.9687 8.27157C35.0284 8.31612 35.0737 8.35079 35.1036 8.37394C35.1185 8.38551 35.1296 8.3942 35.1367 8.39979C35.1403 8.40259 35.1429 8.40462 35.1444 8.40584C35.1452 8.40646 35.1457 8.40687 35.146 8.40708C35.1461 8.40719 35.1462 8.40724 35.1462 8.40724C35.1462 8.40725 35.1461 8.40721 35.1461 8.40721C35.1461 8.40716 35.146 8.4071 35.4583 8.01667C35.7707 7.62623 35.7706 7.62614 35.7704 7.62604C35.7704 7.62599 35.7702 7.62588 35.7701 7.62578C35.7699 7.62558 35.7695 7.62532 35.7692 7.62502C35.7684 7.62441 35.7674 7.62359 35.7661 7.62257C35.7635 7.62054 35.7599 7.6177 35.7553 7.61408C35.7461 7.60684 35.7329 7.59648 35.7158 7.58321C35.6815 7.55668 35.6316 7.51848 35.567 7.47029C35.438 7.37393 35.2503 7.2375 35.0124 7.07435C34.537 6.74836 33.8586 6.31416 33.0439 5.87966C31.4259 5.01674 29.2197 4.125 26.9792 4.125V5.125ZM35.4583 32.375C35.7707 31.9846 35.7706 31.9845 35.7704 31.9844C35.7704 31.9843 35.7702 31.9842 35.7701 31.9841C35.7699 31.9839 35.7695 31.9837 35.7692 31.9833C35.7684 31.9827 35.7674 31.9819 35.7661 31.9809C35.7635 31.9789 35.7599 31.976 35.7553 31.9724C35.7461 31.9652 35.7329 31.9548 35.7158 31.9415C35.6815 31.915 35.6316 31.8768 35.567 31.8286C35.438 31.7323 35.2503 31.5958 35.0124 31.4327C34.537 31.1067 33.8586 30.6725 33.0439 30.238C31.4259 29.3751 29.2197 28.4833 26.9792 28.4833V29.4833C28.9782 29.4833 31.0116 30.2874 32.5733 31.1203C33.3485 31.5338 33.9949 31.9475 34.4469 32.2574C34.6727 32.4122 34.8494 32.5408 34.9687 32.6299C35.0284 32.6745 35.0737 32.7091 35.1036 32.7323C35.1185 32.7438 35.1296 32.7525 35.1367 32.7581C35.1403 32.7609 35.1429 32.7629 35.1444 32.7642C35.1452 32.7648 35.1457 32.7652 35.146 32.7654C35.1461 32.7655 35.1462 32.7656 35.1462 32.7656C35.1462 32.7656 35.1461 32.7655 35.1461 32.7655C35.1461 32.7655 35.146 32.7654 35.4583 32.375ZM26.9792 28.4833C24.7386 28.4833 22.5324 29.3751 20.9144 30.238C20.0998 30.6725 19.4213 31.1067 18.9459 31.4327C18.708 31.5958 18.5203 31.7323 18.3913 31.8286C18.3268 31.8768 18.2768 31.915 18.2426 31.9415C18.2254 31.9548 18.2122 31.9652 18.203 31.9724C18.1984 31.976 18.1948 31.9789 18.1922 31.9809C18.191 31.9819 18.1899 31.9827 18.1892 31.9833C18.1888 31.9837 18.1885 31.9839 18.1882 31.9841C18.1881 31.9842 18.1879 31.9843 18.1879 31.9844C18.1878 31.9845 18.1876 31.9846 18.5 32.375C18.8123 32.7654 18.8123 32.7655 18.8122 32.7655C18.8122 32.7655 18.8122 32.7656 18.8122 32.7656C18.8122 32.7656 18.8122 32.7655 18.8124 32.7654C18.8126 32.7652 18.8132 32.7648 18.8139 32.7642C18.8155 32.7629 18.818 32.7609 18.8216 32.7581C18.8287 32.7525 18.8398 32.7438 18.8547 32.7323C18.8846 32.7091 18.9299 32.6745 18.9896 32.6299C19.109 32.5408 19.2857 32.4122 19.5114 32.2574C19.9634 31.9475 20.6099 31.5338 21.385 31.1203C22.9468 30.2874 24.9801 29.4833 26.9792 29.4833V28.4833Z" fill="#EFF0F7"/>
</svg>
