<svg width="32" height="27" viewBox="0 0 32 27" fill="none" xmlns="http://www.w3.org/2000/svg">
<path d="M1.33301 3.93333L0.708313 3.15246C0.471098 3.34224 0.333008 3.62955 0.333008 3.93333H1.33301ZM15.9997 25L15.375 25.7809L15.9997 26.2806L16.6244 25.7809L15.9997 25ZM1.33301 25H0.333008C0.333008 25.3844 0.553353 25.7348 0.899819 25.9013C1.24628 26.0678 1.65753 26.021 1.9577 25.7809L1.33301 25ZM30.6663 3.93333H31.6663C31.6663 3.62955 31.5282 3.34224 31.291 3.15246L30.6663 3.93333ZM30.6663 25L30.0416 25.7809C30.3418 26.021 30.7531 26.0678 31.0995 25.9013C31.446 25.7348 31.6663 25.3844 31.6663 25H30.6663ZM14.9997 3.93333V25H16.9997V3.93333H14.9997ZM2.33301 25V3.93333H0.333008V25H2.33301ZM1.33301 3.93333C1.9577 4.7142 1.95753 4.71434 1.95737 4.71447C1.95734 4.71449 1.95719 4.71461 1.95712 4.71466C1.95699 4.71477 1.9569 4.71484 1.95688 4.71486C1.95682 4.71491 1.95698 4.71478 1.95736 4.71448C1.95812 4.71387 1.95975 4.71258 1.96223 4.71063C1.9672 4.70672 1.97557 4.70016 1.98725 4.69111C2.01062 4.67302 2.04717 4.64504 2.09601 4.60857C2.19375 4.53559 2.34036 4.42891 2.52874 4.29973C2.90637 4.04079 3.44729 3.69461 4.09526 3.34902C5.41402 2.64568 7.07453 2 8.66634 2V0C6.59148 0 4.58532 0.820987 3.15409 1.58431C2.42706 1.97206 1.82215 2.35921 1.39769 2.65027C1.18503 2.79609 1.01654 2.91857 0.899432 3.00601C0.840851 3.04975 0.795042 3.08479 0.762908 3.10967C0.746839 3.12211 0.73418 3.13201 0.725046 3.13921C0.720478 3.1428 0.716791 3.14572 0.713997 3.14794C0.712601 3.14905 0.711428 3.14998 0.71048 3.15073C0.710006 3.15111 0.709588 3.15145 0.709227 3.15173C0.709046 3.15188 0.708817 3.15206 0.708727 3.15213C0.708513 3.1523 0.708313 3.15246 1.33301 3.93333ZM8.66634 2C10.2582 2 11.9187 2.64568 13.2374 3.34902C13.8854 3.69461 14.4263 4.04079 14.8039 4.29973C14.9923 4.42891 15.1389 4.53559 15.2367 4.60857C15.2855 4.64504 15.3221 4.67302 15.3454 4.69111C15.3571 4.70016 15.3655 4.70672 15.3705 4.71063C15.3729 4.71258 15.3746 4.71387 15.3753 4.71448C15.3757 4.71478 15.3759 4.71491 15.3758 4.71486C15.3758 4.71484 15.3757 4.71477 15.3756 4.71466C15.3755 4.71461 15.3753 4.71449 15.3753 4.71447C15.3752 4.71434 15.375 4.7142 15.9997 3.93333C16.6244 3.15246 16.6242 3.1523 16.624 3.15213C16.6239 3.15206 16.6236 3.15188 16.6235 3.15173C16.6231 3.15145 16.6227 3.15111 16.6222 3.15073C16.6213 3.14998 16.6201 3.14905 16.6187 3.14794C16.6159 3.14572 16.6122 3.1428 16.6076 3.13921C16.5985 3.13201 16.5858 3.12211 16.5698 3.10967C16.5376 3.08479 16.4918 3.04975 16.4332 3.00601C16.3161 2.91857 16.1476 2.79609 15.935 2.65027C15.5105 2.35921 14.9056 1.97206 14.1786 1.58431C12.7474 0.820987 10.7412 0 8.66634 0V2ZM15.9997 25C16.6244 24.2191 16.6242 24.219 16.624 24.2188C16.6239 24.2187 16.6236 24.2185 16.6235 24.2184C16.6231 24.2181 16.6227 24.2178 16.6222 24.2174C16.6213 24.2166 16.6201 24.2157 16.6187 24.2146C16.6159 24.2124 16.6122 24.2095 16.6076 24.2059C16.5985 24.1987 16.5858 24.1888 16.5698 24.1763C16.5376 24.1515 16.4918 24.1164 16.4332 24.0727C16.3161 23.9852 16.1476 23.8628 15.935 23.7169C15.5105 23.4259 14.9056 23.0387 14.1786 22.651C12.7474 21.8877 10.7412 21.0667 8.66634 21.0667V23.0667C10.2582 23.0667 11.9187 23.7123 13.2374 24.4157C13.8854 24.7613 14.4263 25.1075 14.8039 25.3664C14.9923 25.4956 15.1389 25.6023 15.2367 25.6752C15.2855 25.7117 15.3221 25.7397 15.3454 25.7578C15.3571 25.7668 15.3655 25.7734 15.3705 25.7773C15.3729 25.7793 15.3746 25.7805 15.3753 25.7811C15.3757 25.7814 15.3759 25.7816 15.3758 25.7815C15.3758 25.7815 15.3757 25.7814 15.3756 25.7813C15.3755 25.7813 15.3753 25.7812 15.3753 25.7811C15.3752 25.781 15.375 25.7809 15.9997 25ZM8.66634 21.0667C6.59149 21.0667 4.58532 21.8877 3.15409 22.651C2.42706 23.0387 1.82215 23.4259 1.39769 23.7169C1.18503 23.8628 1.01654 23.9852 0.899432 24.0727C0.840851 24.1164 0.795042 24.1515 0.762908 24.1763C0.746839 24.1888 0.73418 24.1987 0.725046 24.2059C0.720478 24.2095 0.716791 24.2124 0.713998 24.2146C0.712601 24.2157 0.711428 24.2166 0.71048 24.2174C0.710006 24.2178 0.709588 24.2181 0.709227 24.2184C0.709046 24.2185 0.708818 24.2187 0.708727 24.2188C0.708513 24.219 0.708313 24.2191 1.33301 25C1.9577 25.7809 1.95753 25.781 1.95737 25.7811C1.95734 25.7812 1.95719 25.7813 1.95712 25.7813C1.95699 25.7814 1.9569 25.7815 1.95688 25.7815C1.95682 25.7816 1.95698 25.7814 1.95736 25.7811C1.95812 25.7805 1.95975 25.7793 1.96223 25.7773C1.96719 25.7734 1.97557 25.7668 1.98725 25.7578C2.01062 25.7397 2.04717 25.7117 2.09601 25.6752C2.19375 25.6023 2.34036 25.4956 2.52874 25.3664C2.90637 25.1075 3.44729 24.7613 4.09526 24.4157C5.41402 23.7123 7.07453 23.0667 8.66634 23.0667V21.0667ZM29.6663 3.93333V25H31.6663V3.93333H29.6663ZM15.9997 3.93333C16.6244 4.7142 16.6242 4.71434 16.624 4.71447C16.624 4.71449 16.6239 4.71461 16.6238 4.71466C16.6237 4.71477 16.6236 4.71484 16.6235 4.71486C16.6235 4.71491 16.6236 4.71478 16.624 4.71448C16.6248 4.71387 16.6264 4.71258 16.6289 4.71063C16.6339 4.70672 16.6422 4.70016 16.6539 4.69111C16.6773 4.67302 16.7138 4.64504 16.7627 4.60857C16.8604 4.53559 17.007 4.42891 17.1954 4.29973C17.573 4.04079 18.114 3.69461 18.7619 3.34902C20.0807 2.64568 21.7412 2 23.333 2V0C21.2582 0 19.252 0.820987 17.8208 1.58431C17.0937 1.97206 16.4888 2.35921 16.0644 2.65027C15.8517 2.79609 15.6832 2.91857 15.5661 3.00601C15.5075 3.04975 15.4617 3.08479 15.4296 3.10967C15.4135 3.12211 15.4008 3.13201 15.3917 3.13921C15.3871 3.1428 15.3835 3.14572 15.3807 3.14794C15.3793 3.14905 15.3781 3.14998 15.3771 3.15073C15.3767 3.15111 15.3763 3.15145 15.3759 3.15173C15.3757 3.15188 15.3755 3.15206 15.3754 3.15213C15.3752 3.1523 15.375 3.15246 15.9997 3.93333ZM23.333 2C24.9248 2 26.5853 2.64568 27.9041 3.34902C28.5521 3.69461 29.093 4.04079 29.4706 4.29973C29.659 4.42891 29.8056 4.53559 29.9033 4.60857C29.9522 4.64504 29.9887 4.67302 30.0121 4.69111C30.0238 4.70016 30.0322 4.70672 30.0371 4.71063C30.0396 4.71258 30.0412 4.71387 30.042 4.71448C30.0424 4.71478 30.0425 4.71491 30.0425 4.71486C30.0424 4.71484 30.0424 4.71477 30.0422 4.71466C30.0422 4.71461 30.042 4.71449 30.042 4.71447C30.0418 4.71434 30.0416 4.7142 30.6663 3.93333C31.291 3.15246 31.2908 3.1523 31.2906 3.15213C31.2905 3.15206 31.2903 3.15188 31.2901 3.15173C31.2898 3.15145 31.2893 3.15111 31.2889 3.15073C31.2879 3.14998 31.2867 3.14905 31.2853 3.14794C31.2826 3.14572 31.2789 3.1428 31.2743 3.13921C31.2652 3.13201 31.2525 3.12211 31.2364 3.10967C31.2043 3.08479 31.1585 3.04975 31.0999 3.00601C30.9828 2.91857 30.8143 2.79609 30.6017 2.65027C30.1772 2.35921 29.5723 1.97206 28.8453 1.58431C27.414 0.820987 25.4079 0 23.333 0V2ZM30.6663 25C31.291 24.2191 31.2908 24.219 31.2906 24.2188C31.2905 24.2187 31.2903 24.2185 31.2901 24.2184C31.2898 24.2181 31.2893 24.2178 31.2889 24.2174C31.2879 24.2166 31.2867 24.2157 31.2853 24.2146C31.2826 24.2124 31.2789 24.2095 31.2743 24.2059C31.2652 24.1987 31.2525 24.1888 31.2364 24.1763C31.2043 24.1515 31.1585 24.1164 31.0999 24.0727C30.9828 23.9852 30.8143 23.8628 30.6017 23.7169C30.1772 23.4259 29.5723 23.0387 28.8453 22.651C27.414 21.8877 25.4079 21.0667 23.333 21.0667V23.0667C24.9248 23.0667 26.5853 23.7123 27.9041 24.4157C28.5521 24.7613 29.093 25.1075 29.4706 25.3664C29.659 25.4956 29.8056 25.6023 29.9033 25.6752C29.9522 25.7117 29.9887 25.7397 30.0121 25.7578C30.0238 25.7668 30.0322 25.7734 30.0371 25.7773C30.0396 25.7793 30.0412 25.7805 30.042 25.7811C30.0424 25.7814 30.0425 25.7816 30.0425 25.7815C30.0424 25.7815 30.0424 25.7814 30.0422 25.7813C30.0422 25.7813 30.042 25.7812 30.042 25.7811C30.0418 25.781 30.0416 25.7809 30.6663 25ZM23.333 21.0667C21.2582 21.0667 19.252 21.8877 17.8208 22.651C17.0937 23.0387 16.4888 23.4259 16.0644 23.7169C15.8517 23.8628 15.6832 23.9852 15.5661 24.0727C15.5075 24.1164 15.4617 24.1515 15.4296 24.1763C15.4135 24.1888 15.4008 24.1987 15.3917 24.2059C15.3871 24.2095 15.3835 24.2124 15.3807 24.2146C15.3793 24.2157 15.3781 24.2166 15.3771 24.2174C15.3767 24.2178 15.3763 24.2181 15.3759 24.2184C15.3757 24.2185 15.3755 24.2187 15.3754 24.2188C15.3752 24.219 15.375 24.2191 15.9997 25C16.6244 25.7809 16.6242 25.781 16.624 25.7811C16.624 25.7812 16.6239 25.7813 16.6238 25.7813C16.6237 25.7814 16.6236 25.7815 16.6235 25.7815C16.6235 25.7816 16.6236 25.7814 16.624 25.7811C16.6248 25.7805 16.6264 25.7793 16.6289 25.7773C16.6339 25.7734 16.6422 25.7668 16.6539 25.7578C16.6773 25.7397 16.7138 25.7117 16.7627 25.6752C16.8604 25.6023 17.007 25.4956 17.1954 25.3664C17.573 25.1075 18.114 24.7613 18.7619 24.4157C20.0807 23.7123 21.7412 23.0667 23.333 23.0667V21.0667Z" fill="#A0A3BD"/>
</svg>
