<svg width="32" height="32" viewBox="0 0 32 32" fill="none" xmlns="http://www.w3.org/2000/svg">
<path d="M1.33331 3.99992C1.33331 2.52716 2.52722 1.33325 3.99998 1.33325H9.33331C10.8061 1.33325 12 2.52716 12 3.99992V9.33325C12 10.806 10.8061 11.9999 9.33331 11.9999H3.99998C2.52722 11.9999 1.33331 10.806 1.33331 9.33325V3.99992Z" stroke="#A0A3BD" stroke-width="2"/>
<path d="M20 3.99992C20 2.52716 21.1939 1.33325 22.6666 1.33325H28C29.4727 1.33325 30.6666 2.52716 30.6666 3.99992V9.33325C30.6666 10.806 29.4727 11.9999 28 11.9999H22.6666C21.1939 11.9999 20 10.806 20 9.33325V3.99992Z" stroke="#A0A3BD" stroke-width="2"/>
<path d="M1.33331 22.6666C1.33331 21.1938 2.52722 19.9999 3.99998 19.9999H9.33331C10.8061 19.9999 12 21.1938 12 22.6666V27.9999C12 29.4727 10.8061 30.6666 9.33331 30.6666H3.99998C2.52722 30.6666 1.33331 29.4727 1.33331 27.9999V22.6666Z" stroke="#A0A3BD" stroke-width="2"/>
<path d="M20 22.6666C20 21.1938 21.1939 19.9999 22.6666 19.9999H28C29.4727 19.9999 30.6666 21.1938 30.6666 22.6666V27.9999C30.6666 29.4727 29.4727 30.6666 28 30.6666H22.6666C21.1939 30.6666 20 29.4727 20 27.9999V22.6666Z" stroke="#A0A3BD" stroke-width="2"/>
</svg>
