<svg width="38" height="37" viewBox="0 0 38 37" fill="none" xmlns="http://www.w3.org/2000/svg">
<path d="M2.29166 4.62484C2.29166 2.92196 3.67211 1.5415 5.37499 1.5415H11.5417C13.2445 1.5415 14.625 2.92196 14.625 4.62484V10.7915C14.625 12.4944 13.2445 13.8748 11.5417 13.8748H5.37499C3.67211 13.8748 2.29166 12.4944 2.29166 10.7915V4.62484Z" fill="#E0AF7E"/>
<path d="M23.875 4.62484C23.875 2.92196 25.2554 1.5415 26.9583 1.5415H33.125C34.8279 1.5415 36.2083 2.92196 36.2083 4.62484V10.7915C36.2083 12.4944 34.8279 13.8748 33.125 13.8748H26.9583C25.2554 13.8748 23.875 12.4944 23.875 10.7915V4.62484Z" fill="#E0AF7E"/>
<path d="M2.29166 26.2082C2.29166 24.5053 3.67211 23.1248 5.37499 23.1248H11.5417C13.2445 23.1248 14.625 24.5053 14.625 26.2082V32.3748C14.625 34.0777 13.2445 35.4582 11.5417 35.4582H5.37499C3.67211 35.4582 2.29166 34.0777 2.29166 32.3748V26.2082Z" fill="#E0AF7E"/>
<path d="M23.875 26.2082C23.875 24.5053 25.2554 23.1248 26.9583 23.1248H33.125C34.8279 23.1248 36.2083 24.5053 36.2083 26.2082V32.3748C36.2083 34.0777 34.8279 35.4582 33.125 35.4582H26.9583C25.2554 35.4582 23.875 34.0777 23.875 32.3748V26.2082Z" fill="#E0AF7E"/>
<path d="M2.29166 4.62484C2.29166 2.92196 3.67211 1.5415 5.37499 1.5415H11.5417C13.2445 1.5415 14.625 2.92196 14.625 4.62484V10.7915C14.625 12.4944 13.2445 13.8748 11.5417 13.8748H5.37499C3.67211 13.8748 2.29166 12.4944 2.29166 10.7915V4.62484Z" stroke="#E0AF7E" stroke-width="2"/>
<path d="M23.875 4.62484C23.875 2.92196 25.2554 1.5415 26.9583 1.5415H33.125C34.8279 1.5415 36.2083 2.92196 36.2083 4.62484V10.7915C36.2083 12.4944 34.8279 13.8748 33.125 13.8748H26.9583C25.2554 13.8748 23.875 12.4944 23.875 10.7915V4.62484Z" stroke="#E0AF7E" stroke-width="2"/>
<path d="M2.29166 26.2082C2.29166 24.5053 3.67211 23.1248 5.37499 23.1248H11.5417C13.2445 23.1248 14.625 24.5053 14.625 26.2082V32.3748C14.625 34.0777 13.2445 35.4582 11.5417 35.4582H5.37499C3.67211 35.4582 2.29166 34.0777 2.29166 32.3748V26.2082Z" stroke="#E0AF7E" stroke-width="2"/>
<path d="M23.875 26.2082C23.875 24.5053 25.2554 23.1248 26.9583 23.1248H33.125C34.8279 23.1248 36.2083 24.5053 36.2083 26.2082V32.3748C36.2083 34.0777 34.8279 35.4582 33.125 35.4582H26.9583C25.2554 35.4582 23.875 34.0777 23.875 32.3748V26.2082Z" stroke="#E0AF7E" stroke-width="2"/>
</svg>
