<svg width="29" height="29" viewBox="0 0 29 29" fill="none" xmlns="http://www.w3.org/2000/svg">
<path d="M1.90625 4.09375C1.90625 2.81659 2.94159 1.78125 4.21875 1.78125H8.84375C10.1209 1.78125 11.1562 2.81659 11.1562 4.09375V8.71875C11.1562 9.99591 10.1209 11.0312 8.84375 11.0312H4.21875C2.94159 11.0312 1.90625 9.99591 1.90625 8.71875V4.09375Z" stroke="#79787F" stroke-width="2.3125"/>
<path d="M18.0938 4.09375C18.0938 2.81659 19.1291 1.78125 20.4062 1.78125H25.0312C26.3084 1.78125 27.3438 2.81659 27.3438 4.09375V8.71875C27.3438 9.99591 26.3084 11.0312 25.0312 11.0312H20.4062C19.1291 11.0312 18.0938 9.99591 18.0938 8.71875V4.09375Z" stroke="#79787F" stroke-width="2.3125"/>
<path d="M1.90625 20.2812C1.90625 19.0041 2.94159 17.9688 4.21875 17.9688H8.84375C10.1209 17.9688 11.1562 19.0041 11.1562 20.2812V24.9062C11.1562 26.1834 10.1209 27.2188 8.84375 27.2188H4.21875C2.94159 27.2188 1.90625 26.1834 1.90625 24.9062V20.2812Z" stroke="#79787F" stroke-width="2.3125"/>
<path d="M18.0938 20.2812C18.0938 19.0041 19.1291 17.9688 20.4062 17.9688H25.0312C26.3084 17.9688 27.3438 19.0041 27.3438 20.2812V24.9062C27.3438 26.1834 26.3084 27.2188 25.0312 27.2188H20.4062C19.1291 27.2188 18.0938 26.1834 18.0938 24.9062V20.2812Z" stroke="#79787F" stroke-width="2.3125"/>
</svg>
