<svg width="22" height="22" viewBox="0 0 22 22" fill="none" xmlns="http://www.w3.org/2000/svg">
<path fill-rule="evenodd" clip-rule="evenodd" d="M11 22C17.0751 22 22 17.0751 22 11C22 4.92487 17.0751 0 11 0C4.92487 0 0 4.92487 0 11C0 17.0751 4.92487 22 11 22ZM8.70711 10.2426C8.31658 9.85208 7.68342 9.85208 7.29289 10.2426C6.90237 10.6331 6.90237 11.2663 7.29289 11.6568L10.1213 14.4852L15.0711 9.53549C15.4616 9.14497 15.4616 8.5118 15.0711 8.12128C14.6805 7.73076 14.0474 7.73076 13.6569 8.12128L10.1213 11.6568L8.70711 10.2426Z" fill="#008A00"/>
</svg>
