<svg width="22" height="23" viewBox="0 0 22 23" fill="none" xmlns="http://www.w3.org/2000/svg">
<path d="M14.8964 0.347382C14.5359 -0.0710768 13.9045 -0.118118 13.4861 0.242312C13.0676 0.602743 13.0206 1.23416 13.381 1.65262L14.8964 0.347382ZM13.381 5.65262C13.7414 6.07108 14.3728 6.11812 14.7913 5.75769C15.2097 5.39726 15.2568 4.76584 14.8964 4.34738L13.381 5.65262ZM9.89636 0.347382C9.53593 -0.0710768 8.90451 -0.118118 8.48605 0.242312C8.0676 0.602743 8.02055 1.23416 8.38098 1.65262L9.89636 0.347382ZM8.38098 5.65262C8.74142 6.07108 9.37283 6.11812 9.79129 5.75769C10.2097 5.39726 10.2568 4.76584 9.89636 4.34738L8.38098 5.65262ZM4.89636 0.347382C4.53593 -0.0710768 3.90451 -0.118118 3.48605 0.242312C3.0676 0.602743 3.02055 1.23416 3.38098 1.65262L4.89636 0.347382ZM3.38098 5.65262C3.74142 6.07108 4.37283 6.11812 4.79129 5.75769C5.20975 5.39726 5.25679 4.76584 4.89636 4.34738L3.38098 5.65262ZM20.577 12.1429L19.691 12.6064L20.577 12.1429ZM18.7833 17.2857L19.2145 18.188L18.7833 17.2857ZM13.7676 18.0274C13.2304 18.1557 12.899 18.6952 13.0274 19.2324C13.1557 19.7696 13.6952 20.101 14.2324 19.9726L13.7676 18.0274ZM1.01208 11.8085L0.0125439 11.778L1.01208 11.8085ZM1.12171 14.5128L2.10952 14.3572L1.12171 14.5128ZM5.61952 22L4.89699 22.6913L5.19233 23H5.61952V22ZM11.3805 22V23H11.8077L12.103 22.6913L11.3805 22ZM15.8783 14.5128L16.8661 14.6685L15.8783 14.5128ZM15.9879 11.8085L16.9875 11.778V11.778L15.9879 11.8085ZM14.1387 1C13.381 1.65262 13.3807 1.65225 13.3804 1.6519C13.3803 1.65178 13.38 1.65142 13.3798 1.65119C13.3794 1.65073 13.379 1.65028 13.3786 1.64985C13.3779 1.64898 13.3772 1.64816 13.3765 1.64739C13.3752 1.64585 13.3741 1.64451 13.3731 1.64338C13.3712 1.64111 13.37 1.63963 13.3695 1.6389C13.3683 1.63747 13.3695 1.63895 13.3726 1.64312C13.379 1.65166 13.3921 1.66987 13.4081 1.69588C13.4419 1.75082 13.4782 1.82326 13.5005 1.90096C13.5348 2.02039 13.5489 2.15246 13.381 2.34738L14.8964 3.65262C15.5898 2.84754 15.6039 1.97961 15.4228 1.34904C15.3375 1.05174 15.2123 0.811682 15.1115 0.64787C15.0602 0.564509 15.0127 0.496773 14.9754 0.446726C14.9566 0.421597 14.9402 0.400621 14.9268 0.384049C14.9201 0.375754 14.9142 0.368534 14.9091 0.36242C14.9065 0.359362 14.9042 0.356578 14.9021 0.354071C14.901 0.352818 14.9 0.351633 14.899 0.350518C14.8986 0.349961 14.8981 0.349421 14.8977 0.348898C14.8974 0.348637 14.8971 0.348257 14.897 0.348127C14.8967 0.347753 14.8964 0.347382 14.1387 1ZM13.381 2.34738C12.6875 3.15246 12.6735 4.02039 12.8545 4.65096C12.9399 4.94826 13.0651 5.18832 13.1658 5.35213C13.2171 5.43549 13.2646 5.50323 13.302 5.55327C13.3208 5.5784 13.3372 5.59938 13.3505 5.61595C13.3572 5.62425 13.3632 5.63147 13.3683 5.63758C13.3708 5.64064 13.3731 5.64342 13.3753 5.64593C13.3763 5.64718 13.3773 5.64837 13.3783 5.64948C13.3788 5.65004 13.3792 5.65058 13.3797 5.6511C13.3799 5.65136 13.3802 5.65174 13.3803 5.65187C13.3807 5.65225 13.381 5.65262 14.1387 5C14.8964 4.34738 14.8967 4.34775 14.897 4.3481C14.8971 4.34822 14.8974 4.34858 14.8976 4.34881C14.898 4.34927 14.8984 4.34972 14.8987 4.35015C14.8995 4.35102 14.9002 4.35184 14.9008 4.35261C14.9021 4.35415 14.9033 4.35549 14.9042 4.35662C14.9061 4.35889 14.9073 4.36037 14.9079 4.3611C14.909 4.36253 14.9078 4.36105 14.9047 4.35688C14.8983 4.34834 14.8853 4.33013 14.8693 4.30412C14.8355 4.24918 14.7992 4.17674 14.7768 4.09904C14.7426 3.97961 14.7285 3.84754 14.8964 3.65262L13.381 2.34738ZM9.13867 1C8.38098 1.65262 8.38067 1.65225 8.38036 1.6519C8.38026 1.65178 8.37996 1.65142 8.37976 1.65119C8.37936 1.65073 8.37898 1.65028 8.37861 1.64985C8.37786 1.64898 8.37716 1.64816 8.37651 1.64739C8.37521 1.64585 8.37409 1.64451 8.37314 1.64338C8.37125 1.64111 8.37004 1.63963 8.36946 1.6389C8.3683 1.63747 8.36954 1.63895 8.37265 1.64312C8.37903 1.65166 8.39208 1.66987 8.40808 1.69588C8.44188 1.75082 8.47819 1.82326 8.5005 1.90096C8.53479 2.02039 8.54888 2.15246 8.38098 2.34738L9.89636 3.65262C10.5898 2.84754 10.6039 1.97961 10.4228 1.34904C10.3375 1.05174 10.2123 0.811682 10.1115 0.64787C10.0602 0.564509 10.0127 0.496773 9.97535 0.446726C9.95659 0.421597 9.94016 0.400621 9.92681 0.384049C9.92013 0.375754 9.91419 0.368534 9.90909 0.36242C9.90654 0.359362 9.9042 0.356578 9.90207 0.354071C9.90101 0.352818 9.9 0.351633 9.89905 0.350518C9.89857 0.349961 9.89811 0.349421 9.89766 0.348898C9.89744 0.348637 9.89711 0.348257 9.897 0.348127C9.89668 0.347753 9.89636 0.347382 9.13867 1ZM8.38098 2.34738C7.68755 3.15246 7.67346 4.02039 7.85451 4.65096C7.93986 4.94826 8.06505 5.18832 8.16583 5.35213C8.21712 5.43549 8.26464 5.50323 8.30199 5.55327C8.32075 5.5784 8.33718 5.59938 8.35053 5.61595C8.35722 5.62425 8.36315 5.63147 8.36825 5.63758C8.3708 5.64064 8.37315 5.64342 8.37527 5.64593C8.37633 5.64718 8.37734 5.64837 8.37829 5.64948C8.37877 5.65004 8.37923 5.65058 8.37968 5.6511C8.37991 5.65136 8.38023 5.65174 8.38034 5.65187C8.38067 5.65225 8.38098 5.65262 9.13867 5C9.89636 4.34738 9.89667 4.34775 9.89698 4.3481C9.89708 4.34822 9.89739 4.34858 9.89758 4.34881C9.89798 4.34927 9.89836 4.34972 9.89874 4.35015C9.89948 4.35102 9.90018 4.35184 9.90083 4.35261C9.90213 4.35415 9.90326 4.35549 9.9042 4.35662C9.90609 4.35889 9.9073 4.36037 9.90789 4.3611C9.90904 4.36253 9.90781 4.36105 9.90469 4.35688C9.89831 4.34834 9.88527 4.33013 9.86926 4.30412C9.83546 4.24918 9.79915 4.17674 9.77684 4.09904C9.74255 3.97961 9.72847 3.84754 9.89636 3.65262L8.38098 2.34738ZM4.13867 1C3.38098 1.65262 3.38067 1.65225 3.38036 1.6519C3.38026 1.65178 3.37996 1.65142 3.37976 1.65119C3.37936 1.65073 3.37898 1.65028 3.37861 1.64985C3.37786 1.64898 3.37716 1.64816 3.37651 1.64739C3.37521 1.64585 3.37409 1.64451 3.37314 1.64338C3.37125 1.64111 3.37004 1.63963 3.36946 1.6389C3.3683 1.63747 3.36954 1.63895 3.37265 1.64312C3.37903 1.65166 3.39208 1.66987 3.40808 1.69588C3.44188 1.75082 3.47819 1.82326 3.5005 1.90096C3.53479 2.02039 3.54888 2.15246 3.38098 2.34738L4.89636 3.65262C5.5898 2.84754 5.60388 1.97961 5.42284 1.34904C5.33748 1.05174 5.21229 0.811682 5.11151 0.64787C5.06023 0.564509 5.01271 0.496773 4.97535 0.446726C4.95659 0.421597 4.94016 0.400621 4.92681 0.384049C4.92013 0.375754 4.91419 0.368534 4.90909 0.36242C4.90654 0.359362 4.9042 0.356578 4.90207 0.354071C4.90101 0.352818 4.9 0.351633 4.89905 0.350518C4.89857 0.349961 4.89811 0.349421 4.89766 0.348898C4.89744 0.348637 4.89711 0.348257 4.897 0.348127C4.89668 0.347753 4.89636 0.347382 4.13867 1ZM3.38098 2.34738C2.68755 3.15246 2.67346 4.02039 2.8545 4.65096C2.93986 4.94826 3.06505 5.18832 3.16583 5.35213C3.21712 5.43549 3.26464 5.50323 3.30199 5.55327C3.32075 5.5784 3.33718 5.59938 3.35053 5.61595C3.35722 5.62425 3.36315 5.63147 3.36825 5.63758C3.3708 5.64064 3.37315 5.64342 3.37527 5.64593C3.37633 5.64718 3.37734 5.64837 3.37829 5.64948C3.37877 5.65004 3.37923 5.65058 3.37968 5.6511C3.37991 5.65136 3.38023 5.65174 3.38034 5.65187C3.38067 5.65225 3.38098 5.65262 4.13867 5C4.89636 4.34738 4.89667 4.34775 4.89698 4.3481C4.89708 4.34822 4.89739 4.34858 4.89758 4.34881C4.89798 4.34927 4.89836 4.34972 4.89874 4.35015C4.89948 4.35102 4.90018 4.35184 4.90083 4.35261C4.90213 4.35415 4.90326 4.35549 4.9042 4.35662C4.90609 4.35889 4.9073 4.36037 4.90789 4.3611C4.90904 4.36253 4.90781 4.36105 4.90469 4.35688C4.89831 4.34834 4.88527 4.33013 4.86926 4.30412C4.83546 4.24918 4.79915 4.17674 4.77684 4.09904C4.74255 3.97961 4.72847 3.84754 4.89636 3.65262L3.38098 2.34738ZM15.7937 12C17.0212 12 17.9687 12.0033 18.6868 12.1281C19.4061 12.2531 19.6106 12.4528 19.691 12.6064L21.4631 11.6793C20.9455 10.69 19.9542 10.3183 19.0292 10.1576C18.1031 9.99669 16.9579 10 15.7937 10V12ZM19.691 12.6064C20.29 13.7513 20.1241 15.5367 18.3521 16.3834L19.2145 18.188C22.2258 16.749 22.4685 13.601 21.4631 11.6793L19.691 12.6064ZM18.3521 16.3834C17.2108 16.9288 16.061 17.3415 15.1912 17.6186C14.7579 17.7567 14.3978 17.8599 14.1476 17.9282C14.0227 17.9623 13.9254 17.9876 13.8605 18.0042C13.828 18.0125 13.8037 18.0185 13.788 18.0224C13.7801 18.0243 13.7745 18.0257 13.7711 18.0265C13.7694 18.027 13.7682 18.0272 13.7676 18.0274C13.7673 18.0274 13.7672 18.0275 13.7672 18.0275C13.7672 18.0275 13.7672 18.0275 13.7673 18.0275C13.7673 18.0274 13.7674 18.0274 13.7674 18.0274C13.7675 18.0274 13.7676 18.0274 14 19C14.2324 19.9726 14.2325 19.9726 14.2326 19.9726C14.2327 19.9726 14.2328 19.9725 14.2329 19.9725C14.2331 19.9724 14.2334 19.9724 14.2337 19.9723C14.2343 19.9722 14.235 19.972 14.2359 19.9718C14.2376 19.9714 14.2399 19.9708 14.2428 19.9701C14.2486 19.9687 14.2566 19.9667 14.2669 19.9642C14.2874 19.9591 14.3168 19.9518 14.3544 19.9422C14.4296 19.9231 14.5379 19.8948 14.6745 19.8575C14.9475 19.783 15.3348 19.6719 15.7983 19.5242C16.7223 19.2299 17.9641 18.7855 19.2145 18.188L18.3521 16.3834ZM2.01162 11.8389C2.0253 11.3898 2.40639 11 2.93406 11V9C1.40472 9 0.0615221 10.1711 0.0125439 11.778L2.01162 11.8389ZM2.10952 14.3572C1.99774 13.6478 1.98548 12.6964 2.01162 11.8389L0.0125439 11.778C-0.0144348 12.6631 -0.00808132 13.7675 0.133904 14.6685L2.10952 14.3572ZM6.34206 21.3087C5.42731 20.3526 4.45461 19.211 3.66411 17.9947C2.8683 16.7703 2.29366 15.5256 2.10952 14.3572L0.133904 14.6685C0.37883 16.2227 1.11192 17.738 1.98718 19.0846C2.86773 20.4395 3.92941 21.6801 4.89699 22.6913L6.34206 21.3087ZM5.61952 23H11.3805V21H5.61952V23ZM14.8905 14.3572C14.7063 15.5256 14.1317 16.7703 13.3359 17.9947C12.5454 19.211 11.5727 20.3526 10.6579 21.3087L12.103 22.6913C13.0706 21.6801 14.1323 20.4395 15.0128 19.0846C15.8881 17.738 16.6212 16.2227 16.8661 14.6685L14.8905 14.3572ZM14.9884 11.8389C15.0145 12.6964 15.0023 13.6478 14.8905 14.3572L16.8661 14.6685C17.0081 13.7675 17.0144 12.6631 16.9875 11.778L14.9884 11.8389ZM14.0659 11C14.5936 11 14.9747 11.3898 14.9884 11.8389L16.9875 11.778C16.9385 10.1711 15.5953 9 14.0659 9V11ZM2.93406 11H14.0659V9H2.93406V11Z" fill="currentColor"/>
</svg>
