<svg width="11" height="12" viewBox="0 0 11 12" fill="none" xmlns="http://www.w3.org/2000/svg">
<path d="M8.12278 2.37395C8.33247 2.27254 8.47771 2.05855 8.47771 1.8102C8.47771 1.64427 8.41179 1.48514 8.29446 1.36781C8.17714 1.25048 8.01801 1.18457 7.85208 1.18457C7.68615 1.18457 7.52702 1.25048 7.4097 1.36781C7.29237 1.48514 7.22645 1.64427 7.22645 1.8102C7.22645 2.06199 7.37513 2.2777 7.58911 2.37738C7.34161 3.71801 6.96177 4.71574 5.5481 4.92887C5.5481 4.92887 5.9288 6.83238 7.70942 6.83238C9.49005 6.83238 9.67052 4.94777 9.67052 4.94777C8.22591 5.02168 8.10388 3.20582 8.12278 2.37395Z" fill="#F19534"/>
<path d="M2.98547 2.37395C2.77579 2.27254 2.63055 2.05855 2.63055 1.8102C2.63055 1.64427 2.69647 1.48514 2.81379 1.36781C2.93112 1.25048 3.09025 1.18457 3.25618 1.18457C3.4221 1.18457 3.58123 1.25048 3.69856 1.36781C3.81589 1.48514 3.8818 1.64427 3.8818 1.8102C3.8818 2.06199 3.73313 2.2777 3.51915 2.37738C3.76665 3.71801 4.14649 4.71574 5.56016 4.92887C5.56016 4.92887 5.17946 6.83238 3.39883 6.83238C1.61821 6.83238 1.4386 4.94863 1.4386 4.94863C2.88235 5.02168 3.00438 3.20582 2.98547 2.37395Z" fill="#F19534"/>
<path d="M7.68542 6.83268C7.69316 6.83268 7.70089 6.83353 7.70863 6.83353C8.19933 6.83353 8.568 6.69002 8.84472 6.48291L7.68542 6.83268Z" fill="#FFCA28"/>
<path d="M10.2471 1.94897C9.96093 1.9103 9.68765 2.18272 9.63781 2.55569C9.60687 2.78858 9.6696 3.006 9.79078 3.14608L9.58453 4.00116C9.58453 4.00116 9.26914 6.02155 7.67585 6.4203C6.40226 6.73913 5.94078 4.40764 5.82906 3.68749C6.0714 3.56717 6.23898 3.31795 6.23898 3.02835C6.23898 2.62186 5.90984 2.29272 5.50335 2.29272C5.09687 2.29272 4.76773 2.62186 4.76773 3.02835C4.76773 3.31967 4.93789 3.57147 5.18453 3.69006C5.09601 4.40077 4.70585 6.65491 3.33085 6.41944C1.93523 6.17967 1.32593 3.82928 1.18499 3.18991C1.35257 3.05241 1.44624 2.81006 1.41187 2.54967C1.36203 2.17585 1.0664 1.90772 0.75187 1.94983C0.437338 1.99194 0.223354 2.32881 0.273198 2.70178C0.309292 2.97335 0.47601 3.18905 0.684838 3.27069L1.77796 10.0623C1.77796 10.0623 2.73187 10.816 5.50335 10.816C8.27484 10.816 9.22874 10.0623 9.22874 10.0623L10.3244 3.25264C10.5015 3.15983 10.6407 2.951 10.6751 2.69491C10.7258 2.32108 10.5341 1.98764 10.2471 1.94897Z" fill="#FFCA28"/>
<path d="M5.53784 9.08629C6.00012 9.08629 6.37487 8.63959 6.37487 8.08855C6.37487 7.53752 6.00012 7.09082 5.53784 7.09082C5.07556 7.09082 4.70081 7.53752 4.70081 8.08855C4.70081 8.63959 5.07556 9.08629 5.53784 9.08629Z" fill="#1B3A4B"/>
<path d="M5.5377 7.33691C5.57036 7.373 5.59958 7.43917 5.5377 7.56808C5.47583 7.69699 5.14239 7.87144 5.08138 7.90667C5.02036 7.94277 4.97997 7.92644 4.96106 7.91183C4.87083 7.83964 4.9052 7.67636 4.96364 7.57667C5.08911 7.36097 5.35466 7.13839 5.5377 7.33691Z" fill="#006466"/>
<path d="M5.47575 8.46066C5.38122 8.5062 5.07099 8.64456 5.17325 8.8087C5.23341 8.90581 5.35802 8.94706 5.47232 8.95222C5.58661 8.95738 5.69919 8.92128 5.8006 8.86886C6.28185 8.61964 6.32052 7.9648 6.22685 7.91495C6.1306 7.86339 6.06529 7.9966 6.01544 8.05331C5.86388 8.22305 5.68053 8.36144 5.47575 8.46066Z" fill="#144552"/>
<path d="M10.1485 7.2719C10.2826 6.53026 9.78412 6.34463 9.78412 6.34463C9.78412 6.34463 9.46272 6.28619 9.31147 7.12065C9.16022 7.95424 9.48162 8.01268 9.48162 8.01268C9.48162 8.01268 10.0136 8.01354 10.1485 7.2719Z" fill="#1B3A4B"/>
<path d="M9.92673 6.59826C10.0436 6.75467 9.90525 6.98584 9.68095 7.13967C9.61478 7.18521 9.52713 7.16803 9.51423 7.13021C9.47814 7.02193 9.49361 6.89904 9.54173 6.79506C9.68439 6.4831 9.86744 6.5192 9.92673 6.59826Z" fill="#006466"/>
<path d="M0.838686 7.29436C0.703764 6.55358 1.20306 6.36709 1.20306 6.36709C1.20306 6.36709 1.52447 6.30866 1.67572 7.14311C1.82697 7.9767 1.50556 8.03514 1.50556 8.03514C1.50556 8.03514 0.972748 8.036 0.838686 7.29436Z" fill="#1B3A4B"/>
<path d="M1.35595 6.61849C1.47111 6.70443 1.42384 6.81701 1.33704 6.89521C1.23822 6.98545 1.16259 7.08427 1.07837 7.18654C1.06548 7.20201 1.05087 7.2192 1.03025 7.22349C0.990716 7.23209 0.958919 7.1917 0.946029 7.15302C0.909076 7.04474 0.915951 6.91756 0.970951 6.81787C1.12736 6.53342 1.31126 6.58498 1.35595 6.61849Z" fill="#006466"/>
<path d="M8.59294 7.99021C8.53364 8.32794 8.26294 8.56255 7.98708 8.51443C7.71122 8.4663 7.6734 8.17841 7.7327 7.84068C7.792 7.50294 7.9252 7.24427 8.2002 7.2924C8.47606 7.34052 8.65223 7.65334 8.59294 7.99021Z" fill="#4D194D"/>
<path d="M2.61508 7.99021C2.67437 8.32794 2.94508 8.56255 3.22094 8.51443C3.4968 8.4663 3.53461 8.17841 3.47531 7.84068C3.41601 7.50294 3.28281 7.24427 3.00781 7.2924C2.73281 7.34052 2.55664 7.65334 2.61508 7.99021Z" fill="#4D194D"/>
<path d="M3.01483 7.76523C2.95209 7.8357 2.79912 7.97749 2.74498 7.86921C2.67108 7.7214 2.77334 7.49796 2.89022 7.42406C3.00709 7.35015 3.10248 7.40859 3.11881 7.47476C3.13858 7.55898 3.07069 7.70164 3.01483 7.76523Z" fill="#FFA8A4" fill-opacity="0.1"/>
<path d="M7.90453 7.98099C7.81945 7.9681 7.81 7.67505 8.03859 7.44474C8.14773 7.33474 8.30414 7.46537 8.26461 7.64154C8.2268 7.80912 8.06008 8.00505 7.90453 7.98099Z" fill="#FFA8A4" fill-opacity="0.1"/>
<path d="M9.38005 8.93994C8.86529 9.19775 7.68451 9.88439 5.50427 9.88439C3.32404 9.88439 2.14326 9.19775 1.62849 8.93994C1.62849 8.93994 1.44373 9.03877 1.44373 9.14189V9.93338C1.44373 10.0391 1.49959 10.1362 1.59068 10.1903C1.99287 10.4275 3.21833 10.9878 5.50513 10.9878C7.79193 10.9878 9.0174 10.4275 9.41958 10.1903C9.4643 10.164 9.50137 10.1264 9.52714 10.0813C9.55291 10.0363 9.56649 9.98529 9.56654 9.93338V9.14189C9.56482 9.03877 9.38005 8.93994 9.38005 8.93994Z" fill="#FFCA28"/>
<path d="M3.40317 10.0256C3.64379 10.0728 3.71684 10.0935 3.70051 10.2275C3.667 10.4914 3.11958 10.4286 2.79559 10.3435C2.12614 10.1674 1.99036 9.98175 1.99036 9.81589C1.99036 9.66378 2.10723 9.64573 2.2877 9.70933C2.5034 9.78581 2.83684 9.91472 3.40317 10.0256Z" fill="#FFF59D"/>
<path d="M9.3801 9.11328C9.3801 9.11328 7.95612 9.91937 5.50432 9.91937C3.05252 9.91937 1.62854 9.11328 1.62854 9.11328" stroke="#F19534" stroke-width="2" stroke-miterlimit="10" stroke-linecap="round"/>
<path d="M2.31766 4.76004C2.77485 4.43347 3.02063 3.84824 3.04212 2.91668C3.04383 2.83246 3.0679 2.80754 3.11344 2.80238C3.18649 2.79464 3.19852 2.86082 3.19766 2.90808C3.17704 3.91355 3.04899 4.54175 2.54196 4.89582C2.51704 4.913 2.33915 5.02129 2.26352 4.94652C2.17329 4.85886 2.28844 4.78066 2.31766 4.76004Z" fill="#FFCA28"/>
<path d="M2.7362 1.83532C2.72159 1.67978 2.75768 1.39962 3.16588 1.27243C3.28534 1.23548 3.35924 1.29392 3.37299 1.33947C3.40737 1.4529 3.30768 1.49759 3.26213 1.5122C2.94846 1.61361 2.93299 1.77001 2.86854 1.8697C2.80409 1.96939 2.74135 1.88259 2.7362 1.83532Z" fill="#FFCA28"/>
<path d="M6.72187 4.55361C7.13523 4.18665 7.40937 3.77673 7.58984 2.84345C7.60617 2.76095 7.63023 2.73861 7.67492 2.74032C7.74797 2.74204 7.75141 2.80993 7.74367 2.85634C7.5907 3.8515 7.44547 4.13509 6.93586 4.6997C6.87828 4.76329 6.7382 4.82087 6.65914 4.7547C6.58781 4.6954 6.67031 4.60001 6.72187 4.55361Z" fill="#FFCA28"/>
<path d="M7.33044 1.84314C7.31583 1.68759 7.35192 1.40743 7.76012 1.28025C7.87958 1.24329 7.95348 1.30173 7.96723 1.34728C8.00161 1.46072 7.90192 1.5054 7.85637 1.52001C7.5427 1.62142 7.52723 1.77782 7.46278 1.87751C7.39918 1.9772 7.33559 1.8904 7.33044 1.84314Z" fill="#FFCA28"/>
<path d="M2.71475 6.6548C1.71615 6.20191 1.42225 5.02027 1.26584 4.50722C1.24521 4.43933 1.25553 4.37488 1.32342 4.35425C1.39131 4.33363 1.4317 4.37745 1.45318 4.44534C1.56662 4.81745 2.00748 6.06011 2.91756 6.41331C2.98373 6.43909 3.08686 6.50183 3.031 6.60925C2.99404 6.67886 2.87545 6.72784 2.71475 6.6548Z" fill="#FFF59D"/>
<path d="M1.08985 2.61689C1.04173 2.5172 1.02196 2.42267 0.759851 2.31353C0.693679 2.28603 0.649851 2.22501 0.667898 2.15626C0.685945 2.08751 0.754695 2.03595 0.854383 2.05314C1.17837 2.109 1.24884 2.43814 1.26259 2.55243C1.27548 2.66243 1.13884 2.71657 1.08985 2.61689Z" fill="#FFF59D"/>
<path d="M8.32493 6.6548C9.32352 6.20191 9.61743 5.02027 9.77384 4.50722C9.79446 4.43933 9.78415 4.37488 9.71626 4.35425C9.64837 4.33363 9.60798 4.37745 9.58649 4.44534C9.47306 4.81745 9.0322 6.06011 8.12212 6.41331C8.05595 6.43909 7.95282 6.50183 8.00868 6.60925C8.04563 6.67886 8.16423 6.72784 8.32493 6.6548Z" fill="#FFF59D"/>
<path d="M9.94983 2.61689C9.99795 2.5172 10.0177 2.42267 10.2798 2.31353C10.346 2.28603 10.3898 2.22501 10.3718 2.15626C10.3537 2.08751 10.285 2.03595 10.1853 2.05314C9.86131 2.109 9.79084 2.43814 9.77709 2.55243C9.7642 2.66243 9.9017 2.71657 9.94983 2.61689Z" fill="#FFF59D"/>
<path d="M5.10313 3.03957C5.15556 2.93215 5.24751 2.7852 5.54743 2.72332C5.66259 2.69926 5.6961 2.64942 5.68579 2.57379C5.66517 2.41653 5.46923 2.4277 5.36353 2.45262C5.01118 2.53512 4.93298 2.84793 4.91837 2.97168C4.90376 3.08942 5.05157 3.147 5.10313 3.03957Z" fill="#FFF59D"/>
</svg>
