<svg width="100" height="100" viewBox="0 0 100 100" fill="none" xmlns="http://www.w3.org/2000/svg">
<path d="M73.8438 17.0391C75.75 16.1172 77.0703 14.1719 77.0703 11.9141C77.0703 10.4056 76.4711 8.95901 75.4045 7.89239C74.3379 6.82578 72.8912 6.22656 71.3828 6.22656C69.8744 6.22656 68.4278 6.82578 67.3611 7.89239C66.2945 8.95901 65.6953 10.4056 65.6953 11.9141C65.6953 14.2031 67.0469 16.1641 68.9922 17.0703C66.7422 29.2578 63.2891 38.3281 50.4375 40.2656C50.4375 40.2656 53.8984 57.5703 70.0859 57.5703C86.2734 57.5703 87.9141 40.4375 87.9141 40.4375C74.7813 41.1094 73.6719 24.6016 73.8438 17.0391Z" fill="#F19534"/>
<path d="M27.1406 17.0391C25.2344 16.1172 23.9141 14.1719 23.9141 11.9141C23.9141 10.4056 24.5133 8.95901 25.5799 7.89239C26.6465 6.82578 28.0931 6.22656 29.6016 6.22656C31.11 6.22656 32.5566 6.82578 33.6232 7.89239C34.6898 8.95901 35.2891 10.4056 35.2891 11.9141C35.2891 14.2031 33.9375 16.1641 31.9922 17.0703C34.2422 29.2578 37.6953 38.3281 50.5469 40.2656C50.5469 40.2656 47.0859 57.5703 30.8984 57.5703C14.7109 57.5703 13.0781 40.4453 13.0781 40.4453C26.2031 41.1094 27.3125 24.6016 27.1406 17.0391Z" fill="#F19534"/>
<path d="M69.8672 57.5703C69.9375 57.5703 70.0078 57.5781 70.0781 57.5781C74.5391 57.5781 77.8906 56.2734 80.4062 54.3906L69.8672 57.5703Z" fill="#FFCA28"/>
<path d="M93.1554 13.1719C90.5538 12.8204 88.0694 15.2969 87.6163 18.6875C87.3351 20.8047 87.9054 22.7813 89.0069 24.0547L87.1319 31.8282C87.1319 31.8282 84.2647 50.1954 69.7804 53.8204C58.2022 56.7188 54.0069 35.5235 52.9913 28.9766C55.1944 27.8829 56.7179 25.6172 56.7179 22.9844C56.7179 19.2891 53.7257 16.2969 50.0304 16.2969C46.335 16.2969 43.3429 19.2891 43.3429 22.9844C43.3429 25.6329 44.8897 27.9219 47.1319 29C46.3272 35.461 42.7804 55.9532 30.2804 53.8125C17.5929 51.6329 12.0538 30.2657 10.7725 24.4532C12.296 23.2032 13.1475 21 12.835 18.6329C12.3819 15.2344 9.69442 12.7969 6.83505 13.1797C3.97567 13.5625 2.03036 16.625 2.48348 20.0157C2.81161 22.4844 4.32723 24.4454 6.22567 25.1875L16.1632 86.9297C16.1632 86.9297 24.835 93.7813 50.0304 93.7813C75.2257 93.7813 83.8975 86.9297 83.8975 86.9297L93.8585 25.0235C95.4679 24.1797 96.7335 22.2813 97.046 19.9532C97.5069 16.5547 95.7647 13.5235 93.1554 13.1719Z" fill="#FFCA28"/>
<path d="M50.3438 78.0547C54.5463 78.0547 57.9531 73.9938 57.9531 68.9844C57.9531 63.975 54.5463 59.9141 50.3438 59.9141C46.1412 59.9141 42.7344 63.975 42.7344 68.9844C42.7344 73.9938 46.1412 78.0547 50.3438 78.0547Z" fill="#1B3A4B"/>
<path d="M50.3426 62.1564C50.6395 62.4845 50.9051 63.0861 50.3426 64.2579C49.7801 65.4298 46.7488 67.0157 46.1941 67.3361C45.6395 67.6642 45.2723 67.5157 45.1004 67.3829C44.2801 66.7267 44.5926 65.2423 45.1238 64.3361C46.2645 62.3751 48.6785 60.3517 50.3426 62.1564Z" fill="#006466"/>
<path d="M49.7794 72.3675C48.92 72.7815 46.0997 74.0394 47.0294 75.5315C47.5763 76.4144 48.7091 76.7894 49.7482 76.8362C50.7872 76.8831 51.8107 76.555 52.7325 76.0784C57.1075 73.8128 57.4591 67.8597 56.6075 67.4065C55.7325 66.9378 55.1388 68.1487 54.6857 68.6644C53.3079 70.2074 51.641 71.4655 49.7794 72.3675Z" fill="#144552"/>
<path d="M92.2585 61.5627C93.4773 54.8205 88.946 53.133 88.946 53.133C88.946 53.133 86.0242 52.6018 84.6492 60.1877C83.2742 67.7658 86.196 68.2971 86.196 68.2971C86.196 68.2971 91.032 68.3049 92.2585 61.5627Z" fill="#1B3A4B"/>
<path d="M90.243 55.4377C91.3054 56.8595 90.0476 58.9611 88.0086 60.3595C87.407 60.7736 86.6101 60.6174 86.493 60.2736C86.1648 59.2892 86.3055 58.172 86.743 57.2267C88.0398 54.3908 89.7039 54.7189 90.243 55.4377Z" fill="#006466"/>
<path d="M7.62437 61.7658C6.39781 55.0315 10.9369 53.3361 10.9369 53.3361C10.9369 53.3361 13.8587 52.8049 15.2337 60.3908C16.6087 67.969 13.6869 68.5002 13.6869 68.5002C13.6869 68.5002 8.84312 68.508 7.62437 61.7658Z" fill="#1B3A4B"/>
<path d="M12.3268 55.6255C13.3737 56.4068 12.944 57.4302 12.1549 58.1411C11.2565 58.9614 10.569 59.8599 9.80334 60.7896C9.68615 60.9302 9.55334 61.0864 9.36584 61.1255C9.00647 61.2036 8.7174 60.8364 8.60022 60.4849C8.26428 59.5005 8.32678 58.3443 8.82678 57.438C10.2487 54.8521 11.9205 55.3208 12.3268 55.6255Z" fill="#006466"/>
<path d="M78.1174 68.0935C77.5783 71.1638 75.1174 73.2967 72.6096 72.8592C70.1018 72.4217 69.758 69.8045 70.2971 66.7342C70.8361 63.6638 72.0471 61.3123 74.5471 61.7498C77.0549 62.1873 78.6564 65.031 78.1174 68.0935Z" fill="#4D194D"/>
<path d="M23.7736 68.0935C24.3127 71.1638 26.7736 73.2967 29.2815 72.8592C31.7893 72.4217 32.133 69.8045 31.594 66.7342C31.0549 63.6638 29.844 61.3123 27.344 61.7498C24.844 62.1873 23.2424 65.031 23.7736 68.0935Z" fill="#4D194D"/>
<path d="M27.4071 66.0472C26.8368 66.6878 25.4461 67.9769 24.954 66.9925C24.2821 65.6487 25.2118 63.6175 26.2743 62.9456C27.3368 62.2737 28.204 62.805 28.3524 63.4066C28.5321 64.1722 27.9149 65.4691 27.4071 66.0472Z" fill="#FFA8A4" fill-opacity="0.1"/>
<path d="M71.8592 68.0083C71.0858 67.8911 70.9998 65.2271 73.0779 63.1333C74.0701 62.1333 75.492 63.3208 75.1326 64.9224C74.7889 66.4458 73.2733 68.2271 71.8592 68.0083Z" fill="#FFA8A4" fill-opacity="0.1"/>
<path d="M85.2734 76.7266C80.5938 79.0703 69.8594 85.3125 50.0391 85.3125C30.2188 85.3125 19.4844 79.0703 14.8047 76.7266C14.8047 76.7266 13.125 77.625 13.125 78.5625V85.7578C13.125 86.7187 13.6328 87.6016 14.4609 88.0938C18.1172 90.25 29.2578 95.3438 50.0469 95.3438C70.8359 95.3438 81.9766 90.25 85.6328 88.0938C86.0393 87.8541 86.3763 87.5126 86.6106 87.1029C86.8448 86.6933 86.9683 86.2297 86.9688 85.7578V78.5625C86.9531 77.625 85.2734 76.7266 85.2734 76.7266Z" fill="#FFCA28"/>
<path d="M30.9375 86.5931C33.125 87.0228 33.7891 87.2103 33.6406 88.4291C33.3359 90.8275 28.3594 90.2572 25.4141 89.4838C19.3281 87.8822 18.0938 86.1947 18.0938 84.6869C18.0938 83.3041 19.1563 83.14 20.7969 83.7181C22.7578 84.4135 25.7891 85.5853 30.9375 86.5931Z" fill="#FFF59D"/>
<path d="M85.2734 78.3047C85.2734 78.3047 72.3281 85.6328 50.0391 85.6328C27.75 85.6328 14.8047 78.3047 14.8047 78.3047" stroke="#F19534" stroke-width="4" stroke-miterlimit="10" stroke-linecap="round"/>
<path d="M21.07 38.7263C25.2262 35.7576 27.4606 30.4373 27.6559 21.9685C27.6715 21.2029 27.8903 20.9763 28.3043 20.9295C28.9684 20.8592 29.0778 21.4607 29.07 21.8904C28.8825 31.031 27.7184 36.742 23.109 39.9607C22.8825 40.117 21.2653 41.1013 20.5778 40.4217C19.7575 39.6248 20.8043 38.9138 21.07 38.7263Z" fill="#FFCA28"/>
<path d="M24.8748 12.1414C24.742 10.7274 25.0701 8.18051 28.781 7.02426C29.867 6.68832 30.5388 7.21957 30.6638 7.63363C30.9763 8.66488 30.0701 9.07113 29.656 9.20395C26.8045 10.1258 26.6638 11.5477 26.0779 12.4539C25.492 13.3602 24.9217 12.5711 24.8748 12.1414Z" fill="#FFCA28"/>
<path d="M61.1081 36.8524C64.8659 33.5164 67.3581 29.7899 68.9988 21.3055C69.1472 20.5555 69.3659 20.3524 69.7722 20.368C70.4362 20.3836 70.4675 21.0008 70.3972 21.4227C69.0066 30.4696 67.6862 33.0477 63.0534 38.1805C62.53 38.7586 61.2566 39.2821 60.5378 38.6805C59.8894 38.1414 60.6394 37.2743 61.1081 36.8524Z" fill="#FFCA28"/>
<path d="M66.6404 12.2118C66.5076 10.7977 66.8357 8.25082 70.5467 7.09457C71.6326 6.75863 72.3045 7.28988 72.4295 7.70395C72.742 8.7352 71.8357 9.14145 71.4217 9.27426C68.5701 10.1961 68.4295 11.618 67.8435 12.5243C67.2654 13.4305 66.6873 12.6414 66.6404 12.2118Z" fill="#FFCA28"/>
<path d="M24.68 55.9529C15.6019 51.8357 12.93 41.0935 11.5082 36.4294C11.3207 35.8123 11.4144 35.2263 12.0316 35.0388C12.6488 34.8513 13.016 35.2498 13.2113 35.8669C14.2425 39.2498 18.2504 50.5466 26.5238 53.7576C27.1254 53.9919 28.0629 54.5623 27.555 55.5388C27.2191 56.1716 26.141 56.6169 24.68 55.9529Z" fill="#FFF59D"/>
<path d="M9.90818 19.2412C9.47068 18.335 9.291 17.4756 6.90818 16.4834C6.30662 16.2334 5.90818 15.6787 6.07225 15.0537C6.23631 14.4287 6.86131 13.96 7.76756 14.1162C10.7129 14.624 11.3535 17.6162 11.4785 18.6553C11.5957 19.6553 10.3535 20.1475 9.90818 19.2412Z" fill="#FFF59D"/>
<path d="M75.6807 55.9529C84.7588 51.8357 87.4307 41.0935 88.8525 36.4294C89.04 35.8123 88.9463 35.2263 88.3291 35.0388C87.7119 34.8513 87.3447 35.2498 87.1494 35.8669C86.1182 39.2498 82.1103 50.5466 73.8369 53.7576C73.2353 53.9919 72.2978 54.5623 72.8057 55.5388C73.1416 56.1716 74.2197 56.6169 75.6807 55.9529Z" fill="#FFF59D"/>
<path d="M90.453 19.2412C90.8905 18.335 91.0702 17.4756 93.453 16.4834C94.0546 16.2334 94.453 15.6787 94.289 15.0537C94.1249 14.4287 93.4999 13.96 92.5937 14.1162C89.6483 14.624 89.0077 17.6162 88.8827 18.6553C88.7655 19.6553 90.0155 20.1475 90.453 19.2412Z" fill="#FFF59D"/>
<path d="M46.392 23.0862C46.8686 22.1096 47.7045 20.7737 50.4311 20.2112C51.4779 19.9924 51.7826 19.5393 51.6889 18.8518C51.5014 17.4221 49.7201 17.5237 48.7592 17.7502C45.5561 18.5002 44.8451 21.344 44.7123 22.469C44.5795 23.5393 45.9232 24.0627 46.392 23.0862Z" fill="#FFF59D"/>
</svg>
