<svg width="24" height="24" viewBox="0 0 24 24" fill="none" xmlns="http://www.w3.org/2000/svg">
<path d="M21.8055 10.0413H21V9.99975H12V13.9998H17.6515C16.827 16.3283 14.6115 17.9998 12 17.9998C8.6865 17.9998 6 15.3133 6 11.9998C6 8.68625 8.6865 5.99976 12 5.99976C13.5295 5.99976 14.921 6.57676 15.9805 7.51926L18.809 4.69076C17.023 3.02626 14.634 1.99976 12 1.99976C6.4775 1.99976 2 6.47726 2 11.9998C2 17.5223 6.4775 21.9998 12 21.9998C17.5225 21.9998 22 17.5223 22 11.9998C22 11.3293 21.931 10.6748 21.8055 10.0413Z" fill="#FFC107"/>
<path d="M3.15234 7.34526L6.43784 9.75476C7.32684 7.55376 9.47984 5.99976 11.9993 5.99976C13.5288 5.99976 14.9203 6.57676 15.9798 7.51926L18.8083 4.69076C17.0223 3.02626 14.6333 1.99976 11.9993 1.99976C8.15834 1.99976 4.82734 4.16826 3.15234 7.34526Z" fill="#FF3D00"/>
<path d="M12.0002 22.0001C14.5832 22.0001 16.9302 21.0116 18.7047 19.4041L15.6097 16.7851C14.5719 17.5743 13.3039 18.0011 12.0002 18.0001C9.39916 18.0001 7.19066 16.3416 6.35866 14.0271L3.09766 16.5396C4.75266 19.7781 8.11366 22.0001 12.0002 22.0001Z" fill="#4CAF50"/>
<path d="M21.8055 10.0413H21V9.99976H12V13.9998H17.6515C17.2571 15.108 16.5467 16.0763 15.608 16.7853L15.6095 16.7843L18.7045 19.4033C18.4855 19.6023 22 16.9998 22 11.9998C22 11.3293 21.931 10.6748 21.8055 10.0413Z" fill="#1976D2"/>
</svg>
