<svg width="38" height="37" viewBox="0 0 38 37" fill="none" xmlns="http://www.w3.org/2000/svg">
<path d="M18.0172 22.8215C19.5685 21.7909 20.7468 20.2883 21.3778 18.5361C22.0088 16.7838 22.0588 14.8749 21.5206 13.092C20.9824 11.309 19.8844 9.74675 18.3893 8.6363C16.8941 7.52586 15.0812 6.92627 13.2188 6.92627C11.3563 6.92627 9.5434 7.52586 8.04824 8.6363C6.55308 9.74675 5.45514 11.309 4.91691 13.092C4.37867 14.8749 4.42874 16.7838 5.0597 18.5361C5.69067 20.2883 6.869 21.7909 8.42031 22.8215C5.7739 23.7946 3.48902 25.5549 1.87305 27.8656C1.74682 28.037 1.67169 28.2406 1.65635 28.4529C1.641 28.6652 1.68606 28.8775 1.78633 29.0652C1.88541 29.2517 2.0331 29.408 2.21376 29.5174C2.39441 29.6268 2.6013 29.6853 2.8125 29.6867H23.625C23.8362 29.6853 24.0431 29.6268 24.2237 29.5174C24.4044 29.408 24.5521 29.2517 24.6512 29.0652C24.7514 28.8775 24.7965 28.6652 24.7812 28.4529C24.7658 28.2406 24.6907 28.037 24.5645 27.8656C22.9485 25.5549 20.6636 23.7946 18.0172 22.8215Z" fill="#E0AF7E"/>
<path d="M36.3582 27.8657C34.733 25.5578 32.4446 23.7987 29.7965 22.8215C31.3527 21.7949 32.536 20.2934 33.1702 18.5402C33.8045 16.7871 33.8559 14.876 33.3167 13.0913C32.7776 11.3066 31.6767 9.74366 30.1779 8.6349C28.6791 7.52615 26.8624 6.93085 24.998 6.93756C24.2023 6.94178 23.4105 7.04865 22.6422 7.25552C22.4617 7.30973 22.2968 7.40619 22.161 7.53689C22.0253 7.6676 21.9227 7.82879 21.8617 8.00709C21.8036 8.18392 21.789 8.37219 21.8191 8.55588C21.8493 8.73957 21.9234 8.91325 22.0351 9.06217C23.3423 10.8185 24.0933 12.9261 24.1912 15.1133C24.2891 17.3005 23.7294 19.4668 22.5844 21.3329C22.4375 21.5808 22.3873 21.8742 22.4433 22.1569C22.4993 22.4396 22.6576 22.6917 22.8879 22.8649C23.3215 23.2021 23.7406 23.549 24.1453 23.9055L24.2176 23.9778C25.7603 25.4054 27.0119 27.1183 27.9031 29.0219C27.9946 29.2209 28.1413 29.3893 28.3258 29.5072C28.5103 29.625 28.7248 29.6874 28.9437 29.6868H35.4043C35.6155 29.6854 35.8224 29.6269 36.003 29.5175C36.1837 29.4081 36.3314 29.2518 36.4305 29.0653C36.5295 28.8779 36.5752 28.6669 36.5624 28.4554C36.5497 28.2438 36.479 28.0398 36.3582 27.8657Z" fill="#E0AF7E"/>
</svg>
