<svg width="38" height="37" viewBox="0 0 38 37" fill="none" xmlns="http://www.w3.org/2000/svg">
<path d="M13.2188 23.125C17.3695 23.125 20.7344 19.7601 20.7344 15.6094C20.7344 11.4586 17.3695 8.09375 13.2188 8.09375C9.06798 8.09375 5.70312 11.4586 5.70312 15.6094C5.70312 19.7601 9.06798 23.125 13.2188 23.125Z" stroke="#79787F" stroke-width="2.3125" stroke-linecap="round" stroke-linejoin="round"/>
<path d="M22.9601 8.36836C23.6245 8.18817 24.3097 8.09585 24.998 8.09375C26.9913 8.09375 28.9029 8.88557 30.3124 10.295C31.7218 11.7045 32.5137 13.6161 32.5137 15.6094C32.5137 17.6026 31.7218 19.5143 30.3124 20.9237C28.9029 22.3332 26.9913 23.125 24.998 23.125" stroke="#79787F" stroke-width="2.3125" stroke-linecap="round" stroke-linejoin="round"/>
<path d="M2.8125 28.5305C3.98602 26.8605 5.54419 25.4976 7.35542 24.5566C9.16664 23.6157 11.1777 23.1245 13.2188 23.1245C15.2598 23.1245 17.2709 23.6157 19.0821 24.5566C20.8933 25.4976 22.4515 26.8605 23.625 28.5305" stroke="#79787F" stroke-width="2.3125" stroke-linecap="round" stroke-linejoin="round"/>
<path d="M24.998 23.125C27.0393 23.1237 29.0507 23.6143 30.8621 24.5553C32.6736 25.4962 34.2316 26.8597 35.4043 28.5305" stroke="#79787F" stroke-width="2.3125" stroke-linecap="round" stroke-linejoin="round"/>
</svg>
