<svg width="17" height="16" viewBox="0 0 17 16" fill="none" xmlns="http://www.w3.org/2000/svg">
<path d="M15.8327 8.00008C15.8327 12.0502 12.5494 15.3334 8.49935 15.3334M15.8327 8.00008C15.8327 3.94999 12.5494 0.666748 8.49935 0.666748M15.8327 8.00008H1.16602M8.49935 15.3334C4.44926 15.3334 1.16602 12.0502 1.16602 8.00008M8.49935 15.3334C8.49935 15.3334 5.83268 13.8667 5.83268 8.00008C5.83268 2.13341 8.49935 0.666748 8.49935 0.666748M8.49935 15.3334C8.49935 15.3334 11.166 13.8667 11.166 8.00008C11.166 2.13341 8.49935 0.666748 8.49935 0.666748M1.16602 8.00008C1.16602 3.94999 4.44926 0.666748 8.49935 0.666748" stroke="#2D2C42" stroke-width="1.33333"/>
</svg>
