<svg width="38" height="37" viewBox="0 0 38 37" fill="none" xmlns="http://www.w3.org/2000/svg">
<path d="M19.25 26.0156C22.4429 26.0156 25.0312 23.4273 25.0312 20.2344C25.0312 17.0415 22.4429 14.4531 19.25 14.4531C16.0571 14.4531 13.4688 17.0415 13.4688 20.2344C13.4688 23.4273 16.0571 26.0156 19.25 26.0156Z" stroke="#79787F" stroke-width="2.3125" stroke-linecap="round" stroke-linejoin="round"/>
<path d="M29.0781 16.7656C30.4248 16.7634 31.7533 17.0758 32.9578 17.6781C34.1623 18.2803 35.2094 19.1557 36.0156 20.2344" stroke="#79787F" stroke-width="2.3125" stroke-linecap="round" stroke-linejoin="round"/>
<path d="M2.48438 20.2344C3.29057 19.1557 4.33767 18.2803 5.54216 17.6781C6.74666 17.0758 8.07521 16.7634 9.42188 16.7656" stroke="#79787F" stroke-width="2.3125" stroke-linecap="round" stroke-linejoin="round"/>
<path d="M10.925 31.219C11.6864 29.6596 12.8705 28.3454 14.3424 27.4262C15.8142 26.5069 17.5147 26.0195 19.25 26.0195C20.9853 26.0195 22.6858 26.5069 24.1576 27.4262C25.6295 28.3454 26.8136 29.6596 27.575 31.219" stroke="#79787F" stroke-width="2.3125" stroke-linecap="round" stroke-linejoin="round"/>
<path d="M9.42187 16.7656C8.54405 16.7665 7.6841 16.5176 6.94251 16.0479C6.20091 15.5782 5.6083 14.9071 5.23391 14.1132C4.85953 13.3192 4.71883 12.4351 4.82825 11.5641C4.93768 10.6931 5.29272 9.87126 5.85188 9.19456C6.41104 8.51787 7.15123 8.01428 7.98597 7.74264C8.8207 7.471 9.71551 7.44252 10.5658 7.66053C11.4161 7.87854 12.1869 8.33404 12.7879 8.97381C13.389 9.61357 13.7956 10.4112 13.9602 11.2734" stroke="#79787F" stroke-width="2.3125" stroke-linecap="round" stroke-linejoin="round"/>
<path d="M24.5399 11.2734C24.7044 10.4112 25.111 9.61357 25.7121 8.97381C26.3131 8.33404 27.0839 7.87854 27.9342 7.66053C28.7845 7.44252 29.6793 7.471 30.514 7.74264C31.3488 8.01428 32.089 8.51787 32.6481 9.19456C33.2073 9.87126 33.5623 10.6931 33.6718 11.5641C33.7812 12.4351 33.6405 13.3192 33.2661 14.1132C32.8917 14.9071 32.2991 15.5782 31.5575 16.0479C30.8159 16.5176 29.956 16.7665 29.0781 16.7656" stroke="#79787F" stroke-width="2.3125" stroke-linecap="round" stroke-linejoin="round"/>
</svg>
