<svg width="31" height="25" viewBox="0 0 31 25" fill="none" xmlns="http://www.w3.org/2000/svg">
<path d="M17.9333 23.6667V21M17.9333 23.6667H1.93332V21C1.93332 16.5817 5.51504 13 9.93332 13C14.3516 13 17.9333 16.5817 17.9333 21M17.9333 23.6667H29.9333V23C29.9333 18.9499 26.6501 15.6667 22.6 15.6667C20.5246 15.6667 18.6506 16.5288 17.3166 17.9144C17.7139 18.8639 17.9333 19.9063 17.9333 21M13.9333 5C13.9333 7.20914 12.1425 9 9.93332 9C7.72418 9 5.93332 7.20914 5.93332 5C5.93332 2.79086 7.72418 1 9.93332 1C12.1425 1 13.9333 2.79086 13.9333 5ZM25.9333 8.33333C25.9333 10.1743 24.4409 11.6667 22.6 11.6667C20.759 11.6667 19.2667 10.1743 19.2667 8.33333C19.2667 6.49238 20.759 5 22.6 5C24.4409 5 25.9333 6.49238 25.9333 8.33333Z" stroke="#A0A3BD" stroke-width="2"/>
</svg>
