<svg width="38" height="37" viewBox="0 0 38 37" fill="none" xmlns="http://www.w3.org/2000/svg">
<path d="M4.45 16.6504C5.47326 15.2768 6.83869 14.1954 8.41016 13.514C7.55037 12.7275 6.94836 11.6994 6.68306 10.5647C6.41777 9.42999 6.50157 8.24159 6.92349 7.15535C7.34541 6.0691 8.08574 5.13571 9.04741 4.47758C10.0091 3.81944 11.1472 3.46729 12.3125 3.46729C13.4778 3.46729 14.6159 3.81944 15.5776 4.47758C16.5393 5.13571 17.2796 6.0691 17.7015 7.15535C18.1234 8.24159 18.2072 9.42999 17.9419 10.5647C17.6766 11.6994 17.0746 12.7275 16.2148 13.514C17.3473 14.0065 18.3769 14.7076 19.25 15.5808C20.1231 14.7076 21.1527 14.0065 22.2852 13.514C21.4254 12.7275 20.8234 11.6994 20.5581 10.5647C20.2928 9.42999 20.3766 8.24159 20.7985 7.15535C21.2204 6.0691 21.9607 5.13571 22.9224 4.47758C23.8841 3.81944 25.0222 3.46729 26.1875 3.46729C27.3528 3.46729 28.4909 3.81944 29.4526 4.47758C30.4143 5.13571 31.1546 6.0691 31.5765 7.15535C31.9984 8.24159 32.0822 9.42999 31.8169 10.5647C31.5516 11.6994 30.9496 12.7275 30.0898 13.514C31.6613 14.1954 33.0267 15.2768 34.05 16.6504C34.1411 16.7718 34.2074 16.9101 34.2451 17.0572C34.2828 17.2043 34.2911 17.3573 34.2696 17.5076C34.2482 17.658 34.1973 17.8026 34.1199 17.9332C34.0426 18.0639 33.9402 18.178 33.8188 18.2691C33.5721 18.4494 33.2648 18.5262 32.9623 18.4829C32.6599 18.4397 32.3863 18.28 32.2 18.0379C31.4999 17.1045 30.5922 16.3469 29.5486 15.8251C28.505 15.3033 27.3543 15.0316 26.1875 15.0316C25.0207 15.0316 23.87 15.3033 22.8264 15.8251C21.7828 16.3469 20.8751 17.1045 20.175 18.0379L20.0883 18.1246H20.0738L20.0016 18.1969L19.9582 18.2258C19.9582 18.2296 19.9567 18.2333 19.954 18.236C19.9513 18.2387 19.9476 18.2402 19.9438 18.2402L19.9004 18.2691L19.857 18.298L19.7848 18.3414H19.7559L19.5102 18.4281H19.0332L18.9176 18.3992H18.8742L18.7441 18.3414L18.7008 18.3125C18.6542 18.2887 18.6106 18.2596 18.5707 18.2258H18.5562L18.5129 18.1824H18.484C18.4551 18.1535 18.4262 18.139 18.4117 18.1101H18.3973L18.3105 18.009C17.6091 17.0791 16.7011 16.3251 15.6583 15.8063C14.6155 15.2875 13.4664 15.0182 12.3017 15.0196C11.1369 15.021 9.98847 15.2931 8.94691 15.8144C7.90535 16.3357 6.99921 17.0919 6.3 18.0234C6.19382 18.1697 6.05484 18.289 5.8942 18.3719C5.73355 18.4547 5.55573 18.4987 5.375 18.5004C5.1243 18.5036 4.87985 18.4222 4.68125 18.2691C4.55978 18.178 4.45744 18.0639 4.38008 17.9332C4.30272 17.8026 4.25185 17.658 4.23037 17.5076C4.2089 17.3573 4.21724 17.2043 4.25493 17.0572C4.29261 16.9101 4.3589 16.7718 4.45 16.6504ZM30.0898 28.5453C30.9496 27.7587 31.5516 26.7307 31.8169 25.5959C32.0822 24.4612 31.9984 23.2728 31.5765 22.1866C31.1546 21.1003 30.4143 20.167 29.4526 19.5088C28.4909 18.8507 27.3528 18.4985 26.1875 18.4985C25.0222 18.4985 23.8841 18.8507 22.9224 19.5088C21.9607 20.167 21.2204 21.1003 20.7985 22.1866C20.3766 23.2728 20.2928 24.4612 20.5581 25.5959C20.8234 26.7307 21.4254 27.7587 22.2852 28.5453C21.1527 29.0377 20.1231 29.7389 19.25 30.6121C18.3769 29.7389 17.3473 29.0377 16.2148 28.5453C17.0746 27.7587 17.6766 26.7307 17.9419 25.5959C18.2072 24.4612 18.1234 23.2728 17.7015 22.1866C17.2796 21.1003 16.5393 20.167 15.5776 19.5088C14.6159 18.8507 13.4778 18.4985 12.3125 18.4985C11.1472 18.4985 10.0091 18.8507 9.04741 19.5088C8.08574 20.167 7.34541 21.1003 6.92349 22.1866C6.50157 23.2728 6.41777 24.4612 6.68306 25.5959C6.94836 26.7307 7.55037 27.7587 8.41016 28.5453C6.83869 29.2267 5.47326 30.308 4.45 31.6816C4.32116 31.8534 4.24271 32.0577 4.22342 32.2715C4.20414 32.4854 4.24479 32.7004 4.34082 32.8925C4.43685 33.0845 4.58446 33.246 4.76712 33.3589C4.94978 33.4718 5.16027 33.5316 5.375 33.5316H33.125C33.3397 33.5316 33.5502 33.4718 33.7329 33.3589C33.9155 33.246 34.0632 33.0845 34.1592 32.8925C34.2552 32.7004 34.2959 32.4854 34.2766 32.2715C34.2573 32.0577 34.1788 31.8534 34.05 31.6816C33.0267 30.308 31.6613 29.2267 30.0898 28.5453Z" fill="#E0AF7E"/>
</svg>
