<svg width="37" height="37" viewBox="0 0 37 37" fill="none" xmlns="http://www.w3.org/2000/svg">
<path d="M21.9688 30.0625V23.125C21.9688 22.8183 21.8469 22.5242 21.6301 22.3074C21.4133 22.0905 21.1192 21.9687 20.8125 21.9687H16.1875C15.8808 21.9687 15.5867 22.0905 15.3699 22.3074C15.1531 22.5242 15.0312 22.8183 15.0312 23.125V30.0625C15.0312 30.3691 14.9094 30.6632 14.6926 30.8801C14.4758 31.0969 14.1817 31.2187 13.875 31.2187H6.9375C6.63084 31.2187 6.33675 31.0969 6.11991 30.8801C5.90307 30.6632 5.78125 30.3691 5.78125 30.0625V16.6933C5.78384 16.5333 5.81842 16.3754 5.88296 16.229C5.94749 16.0825 6.04068 15.9505 6.15703 15.8406L17.7195 5.33318C17.9327 5.13818 18.2111 5.03003 18.5 5.03003C18.7889 5.03003 19.0673 5.13818 19.2805 5.33318L30.843 15.8406C30.9593 15.9505 31.0525 16.0825 31.117 16.229C31.1816 16.3754 31.2162 16.5333 31.2188 16.6933V30.0625C31.2188 30.3691 31.0969 30.6632 30.8801 30.8801C30.6633 31.0969 30.3692 31.2187 30.0625 31.2187H23.125C22.8183 31.2187 22.5242 31.0969 22.3074 30.8801C22.0906 30.6632 21.9688 30.3691 21.9688 30.0625Z" stroke="#79787F" stroke-width="2" stroke-linecap="round" stroke-linejoin="round"/>
</svg>
