<svg width="30" height="32" viewBox="0 0 30 32" fill="none" xmlns="http://www.w3.org/2000/svg">
<path d="M1.66663 12.6679C1.66663 11.7144 2.11994 10.8176 2.88778 10.2522L15 1.33325L27.1121 10.2522C27.88 10.8176 28.3333 11.7144 28.3333 12.6679V28.1666C28.3333 29.5473 27.214 30.6666 25.8333 30.6666H20C19.4477 30.6666 19 30.2189 19 29.6666V21.1666C19 20.8904 18.7761 20.6666 18.5 20.6666H11.5C11.2238 20.6666 11 20.8904 11 21.1666V29.6666C11 30.2189 10.5522 30.6666 9.99996 30.6666H4.16663C2.78591 30.6666 1.66663 29.5473 1.66663 28.1666V12.6679Z" stroke="#A0A3BD" stroke-width="2" stroke-linecap="round" stroke-linejoin="round"/>
</svg>
