<svg width="32" height="32" viewBox="0 0 32 32" fill="none" xmlns="http://www.w3.org/2000/svg">
<path d="M6.59723 27.3217C6.22262 27.7275 6.24793 28.3602 6.65375 28.7348C7.05957 29.1094 7.69223 29.0841 8.06684 28.6783L6.59723 27.3217ZM21.6282 12.5125L22.363 13.1908L21.6282 12.5125ZM25.2763 12.2574L25.9095 11.4834V11.4834L25.2763 12.2574ZM30.0321 17.4406C30.4596 17.7904 31.0896 17.7273 31.4393 17.2999C31.7891 16.8725 31.7261 16.2424 31.2986 15.8927L30.0321 17.4406ZM4.9987 17.3333C4.9987 17.8856 5.44641 18.3333 5.9987 18.3333C6.55098 18.3333 6.9987 17.8856 6.9987 17.3333H4.9987ZM15.6654 17.3333C15.6654 17.8856 16.1131 18.3333 16.6654 18.3333C17.2177 18.3333 17.6654 17.8856 17.6654 17.3333H15.6654ZM3.9987 5H27.9987V3H3.9987V5ZM29.6654 6.66667V25.3333H31.6654V6.66667H29.6654ZM27.9987 27H3.9987V29H27.9987V27ZM2.33203 25.3333V6.66667H0.332031V25.3333H2.33203ZM3.9987 27C3.07822 27 2.33203 26.2538 2.33203 25.3333H0.332031C0.332031 27.3584 1.97365 29 3.9987 29V27ZM29.6654 25.3333C29.6654 26.2538 28.9192 27 27.9987 27V29C30.0237 29 31.6654 27.3584 31.6654 25.3333H29.6654ZM27.9987 5C28.9192 5 29.6654 5.74619 29.6654 6.66667H31.6654C31.6654 4.64162 30.0237 3 27.9987 3V5ZM3.9987 3C1.97365 3 0.332031 4.64162 0.332031 6.66667H2.33203C2.33203 5.74619 3.07822 5 3.9987 5V3ZM8.06684 28.6783L22.363 13.1908L20.8934 11.8343L6.59723 27.3217L8.06684 28.6783ZM24.643 13.0314L30.0321 17.4406L31.2986 15.8927L25.9095 11.4834L24.643 13.0314ZM22.363 13.1908C22.9611 12.5428 23.9605 12.4729 24.643 13.0314L25.9095 11.4834C24.408 10.2549 22.2093 10.4087 20.8934 11.8343L22.363 13.1908ZM0.624924 14.0404L10.9583 24.3738L12.3725 22.9596L2.03914 12.6262L0.624924 14.0404ZM6.9987 17.3333C6.9987 17.2642 7.04447 17.0347 7.26891 16.6708C7.47961 16.3293 7.80063 15.9474 8.21433 15.5902C9.04957 14.8691 10.1597 14.3333 11.332 14.3333V12.3333C9.55883 12.3333 8.00231 13.1309 6.90727 14.0764C6.35582 14.5526 5.89579 15.0874 5.56673 15.6208C5.2514 16.132 4.9987 16.7358 4.9987 17.3333H6.9987ZM11.332 14.3333C12.5044 14.3333 13.6145 14.8691 14.4497 15.5902C14.8634 15.9474 15.1845 16.3293 15.3952 16.6708C15.6196 17.0347 15.6654 17.2642 15.6654 17.3333H17.6654C17.6654 16.7358 17.4127 16.132 17.0973 15.6208C16.7683 15.0874 16.3082 14.5526 15.7568 14.0764C14.6618 13.1309 13.1052 12.3333 11.332 12.3333V14.3333Z" fill="#262338"/>
</svg>
