<svg width="15" height="14" viewBox="0 0 15 14" fill="none" xmlns="http://www.w3.org/2000/svg">
<path d="M2.5625 6.39585C1.56148 6.39585 0.75 7.20734 0.75 8.20835V11.8334C0.75 12.8344 1.56148 13.6459 2.5625 13.6459H3.16667V6.39585H2.5625Z" fill="#E0AF7E"/>
<path d="M4.375 5.68434V13.6459H10.862C11.6712 13.6459 12.3824 13.1094 12.6048 12.3313L13.9857 7.49795C14.3165 6.3401 13.4471 5.18752 12.2429 5.18752H9.58506C9.04275 5.18752 8.62185 4.71442 8.68497 4.17579L8.9087 2.26664C9.02801 1.24849 8.23239 0.354187 7.20728 0.354187C6.8637 0.354187 6.55337 0.559489 6.41898 0.875694L4.38559 5.66015C4.38214 5.66826 4.37861 5.67633 4.375 5.68434Z" fill="#E0AF7E"/>
</svg>
