<svg width="16" height="16" viewBox="0 0 16 16" fill="none" xmlns="http://www.w3.org/2000/svg">
<path d="M4.66683 6.66669V4.00002C4.66683 3.11597 5.01802 2.26812 5.64314 1.643C6.26826 1.01788 7.11611 0.666687 8.00016 0.666687C8.88422 0.666687 9.73206 1.01788 10.3572 1.643C10.9823 2.26812 11.3335 3.11597 11.3335 4.00002V6.66669M1.3335 8.00002C1.3335 6.89545 2.22893 6.00002 3.3335 6.00002H12.6668C13.7714 6.00002 14.6668 6.89545 14.6668 8.00002V13.3334C14.6668 14.4379 13.7714 15.3334 12.6668 15.3334H3.3335C2.22893 15.3334 1.3335 14.4379 1.3335 13.3334V8.00002Z" stroke="#2D2C42" stroke-width="1.33333"/>
</svg>
