<svg width="21" height="22" viewBox="0 0 21 22" fill="none" xmlns="http://www.w3.org/2000/svg">
<path d="M3.5 11C3.5 11.2321 3.59219 11.4546 3.75628 11.6187C3.92038 11.7828 4.14294 11.875 4.375 11.875H11.0163L9.00375 13.8787C8.92174 13.9601 8.85664 14.0569 8.81222 14.1635C8.7678 14.2701 8.74493 14.3845 8.74493 14.5C8.74493 14.6155 8.7678 14.7299 8.81222 14.8365C8.85664 14.9431 8.92174 15.0399 9.00375 15.1212C9.08509 15.2033 9.18187 15.2684 9.2885 15.3128C9.39512 15.3572 9.50949 15.3801 9.625 15.3801C9.74051 15.3801 9.85488 15.3572 9.9615 15.3128C10.0681 15.2684 10.1649 15.2033 10.2463 15.1212L13.7463 11.6213C13.8259 11.538 13.8884 11.4399 13.93 11.3325C14.0175 11.1195 14.0175 10.8805 13.93 10.6675C13.8884 10.5601 13.8259 10.462 13.7463 10.3787L10.2463 6.87875C10.1647 6.79717 10.0678 6.73245 9.96122 6.6883C9.85462 6.64415 9.74038 6.62142 9.625 6.62142C9.50962 6.62142 9.39538 6.64415 9.28878 6.6883C9.18219 6.73245 9.08533 6.79717 9.00375 6.87875C8.92217 6.96033 8.85745 7.05719 8.8133 7.16378C8.76914 7.27038 8.74642 7.38462 8.74642 7.5C8.74642 7.61538 8.76914 7.72962 8.8133 7.83622C8.85745 7.94281 8.92217 8.03967 9.00375 8.12125L11.0163 10.125H4.375C4.14294 10.125 3.92038 10.2172 3.75628 10.3813C3.59219 10.5454 3.5 10.7679 3.5 11V11ZM14.875 2.25H6.125C5.42881 2.25 4.76113 2.52656 4.26884 3.01884C3.77656 3.51113 3.5 4.17881 3.5 4.875V7.5C3.5 7.73206 3.59219 7.95462 3.75628 8.11872C3.92038 8.28281 4.14294 8.375 4.375 8.375C4.60706 8.375 4.82962 8.28281 4.99372 8.11872C5.15781 7.95462 5.25 7.73206 5.25 7.5V4.875C5.25 4.64294 5.34219 4.42038 5.50628 4.25628C5.67038 4.09219 5.89294 4 6.125 4H14.875C15.1071 4 15.3296 4.09219 15.4937 4.25628C15.6578 4.42038 15.75 4.64294 15.75 4.875V17.125C15.75 17.3571 15.6578 17.5796 15.4937 17.7437C15.3296 17.9078 15.1071 18 14.875 18H6.125C5.89294 18 5.67038 17.9078 5.50628 17.7437C5.34219 17.5796 5.25 17.3571 5.25 17.125V14.5C5.25 14.2679 5.15781 14.0454 4.99372 13.8813C4.82962 13.7172 4.60706 13.625 4.375 13.625C4.14294 13.625 3.92038 13.7172 3.75628 13.8813C3.59219 14.0454 3.5 14.2679 3.5 14.5V17.125C3.5 17.8212 3.77656 18.4889 4.26884 18.9812C4.76113 19.4734 5.42881 19.75 6.125 19.75H14.875C15.5712 19.75 16.2389 19.4734 16.7312 18.9812C17.2234 18.4889 17.5 17.8212 17.5 17.125V4.875C17.5 4.17881 17.2234 3.51113 16.7312 3.01884C16.2389 2.52656 15.5712 2.25 14.875 2.25Z" fill="#2D2C42"/>
</svg>
