<svg width="160" height="43" viewBox="0 0 160 43" fill="none" xmlns="http://www.w3.org/2000/svg">
<g clip-path="url(#clip0_6610_46345)">
<path d="M0 14.4024L17.118 42.85L34.4124 15.9378L24.2475 0.628662L13.9679 16.0613L21.7063 27.638L17.2415 34.5999L5.08245 14.4024H0ZM24.274 23.632L19.2092 16.0525L24.2387 8.49939L29.1976 15.9731L24.274 23.632Z" fill="#E1B17F"/>
<path d="M43.2361 14.4024L31.1035 34.5999L26.6387 27.638L34.4124 16.0613L24.0975 0.628662L13.9414 15.9378L31.227 42.85L48.345 14.4024H43.2361ZM19.1474 15.9731L24.1063 8.49939L29.1182 16.0525L24.0534 23.632L19.1474 15.9731Z" fill="#E1B17F"/>
<path d="M76.6602 19.9878H80.5515L73.9249 39.5499H70.0425L65.5689 24.7085L61.0158 39.5499H57.1864L50.5862 19.9878H54.6098L59.2246 35.491L63.8041 19.9878H67.5013L72.1072 35.5528L76.6602 19.9878Z" fill="#2F2D42"/>
<path d="M86.1369 18.779C86.5332 19.2042 86.7456 19.7686 86.7281 20.3496C86.742 20.9195 86.5294 21.4716 86.1369 21.8849C85.9482 22.0877 85.7182 22.2477 85.4625 22.3543C85.2069 22.4608 84.9313 22.5114 84.6545 22.5026C84.3779 22.5097 84.1029 22.4583 83.8474 22.3519C83.592 22.2455 83.3619 22.0863 83.1721 21.8849C82.9789 21.6798 82.8281 21.4387 82.7281 21.1752C82.6282 20.9118 82.5812 20.6313 82.5897 20.3496C82.5698 19.7699 82.779 19.2056 83.1721 18.779C83.3633 18.5801 83.5939 18.4232 83.8491 18.3184C84.1044 18.2135 84.3787 18.1631 84.6545 18.1702C84.9305 18.1614 85.2053 18.2111 85.4608 18.3161C85.7163 18.421 85.9467 18.5788 86.1369 18.779ZM82.8633 24.5938H86.4722V39.5941H82.8633V24.5938Z" fill="#2F2D42"/>
<path d="M97.6077 27.6469C96.9192 27.4142 96.199 27.2892 95.4723 27.2763C94.9635 27.2497 94.457 27.3626 94.0076 27.6028C93.8317 27.6982 93.6868 27.842 93.5899 28.0171C93.493 28.1922 93.4481 28.3913 93.4605 28.591C93.4582 28.8168 93.5211 29.0385 93.6416 29.2294C93.7621 29.4203 93.9352 29.5725 94.14 29.6675C94.8321 30.0112 95.5601 30.2775 96.3106 30.4616C97.1848 30.7208 98.0422 31.0332 98.8783 31.397C99.5659 31.7117 100.17 32.1832 100.643 32.7735C101.163 33.4556 101.425 34.2992 101.384 35.1559C101.416 35.8116 101.278 36.4644 100.984 37.0515C100.691 37.6387 100.251 38.1405 99.7077 38.5089C98.4597 39.3336 96.9849 39.7471 95.49 39.6912C94.3415 39.6912 93.2004 39.5065 92.1105 39.1442C91.0818 38.8232 90.1298 38.2947 89.3134 37.5912L90.5487 35.0411C91.2603 35.6377 92.0773 36.0956 92.9576 36.3912C93.8058 36.7039 94.7008 36.8709 95.6047 36.8853C96.1619 36.9123 96.7161 36.7905 97.2106 36.5323C97.3992 36.4314 97.5555 36.2793 97.6616 36.0936C97.7677 35.9079 97.8194 35.696 97.8106 35.4823C97.8171 35.2409 97.755 35.0025 97.6317 34.7948C97.5083 34.5872 97.3287 34.4186 97.1136 34.3088C96.3869 33.9445 95.6276 33.6491 94.8459 33.4264C94.0064 33.1877 93.184 32.8929 92.3841 32.544C91.7408 32.2416 91.1784 31.791 90.7428 31.2293C90.2488 30.5628 89.9995 29.7463 90.037 28.9175C90.0023 28.2666 90.132 27.6175 90.4142 27.03C90.6964 26.4425 91.122 25.9355 91.6517 25.5557C92.8454 24.7636 94.2624 24.3769 95.6929 24.4527C96.6818 24.4531 97.6654 24.5957 98.6136 24.8763C99.5239 25.128 100.388 25.5242 101.172 26.0498L99.8577 28.6969C99.1515 28.2599 98.3963 27.9074 97.6077 27.6469Z" fill="#2F2D42"/>
<path d="M108.002 21.0732C107.732 21.3607 107.523 21.6994 107.387 22.0692C107.25 22.439 107.19 22.8324 107.208 23.2261V25.335H111.514V26.8174H107.208V39.55H105.337V26.7733H103.467V25.335H105.337V23.4467C105.318 22.5547 105.531 21.673 105.955 20.8879C106.345 20.1745 106.934 19.5892 107.649 19.2025C108.328 18.8131 109.098 18.6092 109.881 18.6113C110.78 18.6133 111.664 18.844 112.449 19.2819L111.973 20.7996C111.378 20.4592 110.708 20.2741 110.023 20.2614C109.648 20.2457 109.273 20.3099 108.925 20.4499C108.577 20.5898 108.262 20.8023 108.002 21.0732Z" fill="#2F2D42"/>
<path d="M124.652 27.0116C125.911 28.6816 126.496 30.763 126.294 32.8441H114.082C114.164 34.285 114.796 35.6395 115.846 36.6294C116.353 37.1069 116.949 37.4797 117.6 37.7265C118.251 37.9733 118.945 38.0892 119.64 38.0677C120.533 38.0756 121.418 37.9046 122.243 37.5647C123.027 37.2431 123.731 36.7554 124.308 36.1353L125.376 37.203C124.657 37.9657 123.785 38.5672 122.817 38.9677C121.775 39.3926 120.659 39.6056 119.535 39.5942C118.215 39.6205 116.913 39.2978 115.758 38.6589C114.669 38.0319 113.774 37.1158 113.173 36.0118C112.558 34.832 112.237 33.5214 112.237 32.1911C112.237 30.8608 112.558 29.5502 113.173 28.3705C113.77 27.2639 114.666 26.3469 115.758 25.7233C116.895 25.0888 118.18 24.7661 119.482 24.788C120.456 24.7392 121.429 24.9142 122.325 25.2997C123.221 25.6851 124.017 26.2707 124.652 27.0116ZM124.652 31.4235C124.629 30.0571 124.087 28.7508 123.135 27.7704C122.652 27.3153 122.084 26.9614 121.462 26.7295C120.841 26.4977 120.18 26.3926 119.517 26.4204C118.156 26.3783 116.833 26.869 115.829 27.7881C114.821 28.7415 114.21 30.0395 114.117 31.4235H124.652Z" fill="#2F2D42"/>
<path d="M141.108 27.0115C142.37 28.6802 142.959 30.7617 142.759 32.8439H130.591C130.673 34.2851 131.304 35.6399 132.355 36.6293C133.384 37.5916 134.751 38.1086 136.158 38.0676C137.051 38.0755 137.936 37.9045 138.761 37.5646C139.544 37.2405 140.247 36.7532 140.826 36.1352L141.885 37.2028C141.168 37.9635 140.299 38.5648 139.335 38.9676C138.29 39.3923 137.171 39.6053 136.044 39.5941C134.727 39.6204 133.427 39.2977 132.276 38.6587C131.182 38.0371 130.286 37.1196 129.691 36.0116C129.076 34.8319 128.755 33.5213 128.755 32.191C128.755 30.8607 129.076 29.55 129.691 28.3703C130.283 27.2601 131.18 26.3418 132.276 25.7232C133.384 25.128 134.627 24.8272 135.885 24.8497C136.863 24.783 137.844 24.9435 138.75 25.3185C139.656 25.6935 140.463 26.2729 141.108 27.0115ZM141.108 31.4233C141.082 30.0559 140.536 28.7498 139.582 27.7703C139.1 27.3144 138.532 26.9599 137.91 26.728C137.289 26.4961 136.627 26.3914 135.964 26.4203C134.604 26.38 133.281 26.8705 132.276 27.788C131.286 28.7363 130.685 30.02 130.591 31.388L141.108 31.4233Z" fill="#2F2D42"/>
<path d="M160 18.8142V39.5499H158.129V36.1969C157.606 37.2535 156.792 38.1383 155.782 38.7469C154.71 39.3628 153.488 39.6683 152.253 39.6293C150.961 39.6547 149.686 39.3284 148.564 38.6852C147.489 38.063 146.616 37.1439 146.05 36.0381C145.444 34.8447 145.141 33.5204 145.167 32.1821C145.136 30.8518 145.439 29.535 146.05 28.3526C146.629 27.2557 147.499 26.3398 148.564 25.7055C149.673 25.0621 150.936 24.7327 152.217 24.7526C153.457 24.7259 154.68 25.0469 155.747 25.679C156.762 26.294 157.582 27.1844 158.112 28.2467V18.8142H160ZM155.447 37.344C156.278 36.8511 156.959 36.1401 157.415 35.288C157.885 34.3594 158.129 33.3332 158.129 32.2924C158.129 31.2516 157.885 30.2254 157.415 29.2968C156.963 28.435 156.282 27.7145 155.447 27.2144C154.579 26.7175 153.597 26.4561 152.597 26.4561C151.597 26.4561 150.615 26.7175 149.747 27.2144C148.908 27.7151 148.222 28.4351 147.762 29.2968C147.292 30.2254 147.047 31.2516 147.047 32.2924C147.047 33.3332 147.292 34.3594 147.762 35.288C148.22 36.1443 148.907 36.8562 149.747 37.344C150.618 37.845 151.609 38.1011 152.615 38.0852C153.612 38.0844 154.591 37.813 155.447 37.2998V37.344Z" fill="#2F2D42"/>
</g>
<defs>
<clipPath id="clip0_6610_46345">
<rect width="160" height="42.2214" fill="white" transform="translate(0 0.628662)"/>
</clipPath>
</defs>
</svg>
