<svg width="30" height="29" viewBox="0 0 30 29" fill="none" xmlns="http://www.w3.org/2000/svg">
<path d="M24.7777 10.0192C24.7777 7.53868 23.7475 5.1598 21.9138 3.40583C20.0801 1.65187 17.5931 0.666504 14.9999 0.666504C12.4067 0.666504 9.91966 1.65187 8.08597 3.40583C6.25228 5.1598 5.22212 7.53868 5.22212 10.0192C5.22212 17.9311 1.95062 21.7452 0.151978 23.2443C-0.118108 23.4694 0.0577201 24.0481 0.409312 24.0481H9.02941C9.18537 24.0481 9.32087 24.1537 9.36685 24.3027C9.66538 25.2704 10.9981 28.6665 14.9999 28.6665C19.0017 28.6665 20.3344 25.2704 20.633 24.3027C20.6789 24.1537 20.8144 24.0481 20.9704 24.0481H29.5905C29.9421 24.0481 30.1179 23.4694 29.8478 23.2443C28.0492 21.7452 24.7777 17.9311 24.7777 10.0192Z" fill="#E0AF7E"/>
</svg>
