<svg width="24" height="24" viewBox="0 0 24 24" fill="none" xmlns="http://www.w3.org/2000/svg">
<path d="M16.9988 1.7999L16.5843 0.889846L16.4196 0.964847L16.2917 1.0928L16.9988 1.7999ZM22.6556 7.45676L23.3627 8.16387L23.4907 8.03591L23.5657 7.87124L22.6556 7.45676ZM8.25637 21.856L8.37551 22.8489L8.71891 22.8077L8.96348 22.5631L8.25637 21.856ZM1.82812 22.6274L0.835248 22.5083L0.683609 23.7719L1.94727 23.6203L1.82812 22.6274ZM2.59951 16.1992L1.89241 15.4921L1.64785 15.7366L1.60664 16.08L2.59951 16.1992ZM16.9988 1.7999C17.4133 2.70996 17.4128 2.71017 17.4124 2.71037C17.4122 2.71044 17.4118 2.71064 17.4115 2.71076C17.4109 2.71101 17.4104 2.71124 17.41 2.71146C17.409 2.71189 17.4082 2.71226 17.4075 2.71257C17.4061 2.71317 17.4053 2.71353 17.405 2.71364C17.4045 2.71387 17.4062 2.71315 17.4099 2.71161C17.4174 2.70851 17.4331 2.70215 17.4564 2.69352C17.5032 2.67619 17.5796 2.65008 17.6804 2.62278C17.8836 2.56773 18.1756 2.51068 18.5186 2.50595C19.1847 2.49676 20.0651 2.68066 20.92 3.53553L22.3342 2.12132C21.0341 0.821194 19.6003 0.490836 18.491 0.506137C17.9463 0.51365 17.4854 0.603525 17.1574 0.692353C16.9927 0.736987 16.859 0.782046 16.7621 0.817901C16.7136 0.835858 16.6741 0.851598 16.6443 0.86395C16.6294 0.87013 16.6169 0.875473 16.6068 0.879834C16.6018 0.882015 16.5974 0.883951 16.5937 0.885626C16.5918 0.886463 16.5901 0.887235 16.5885 0.887939C16.5877 0.888291 16.587 0.888626 16.5863 0.888944C16.5859 0.889103 16.5854 0.889329 16.5853 0.889408C16.5848 0.889629 16.5843 0.889846 16.9988 1.7999ZM20.92 3.53553C21.7749 4.3904 21.9588 5.27079 21.9496 5.93692C21.9449 6.27994 21.8878 6.57197 21.8328 6.77516C21.8055 6.87594 21.7794 6.9523 21.762 6.99912C21.7534 7.02245 21.747 7.03818 21.7439 7.04565C21.7424 7.04938 21.7417 7.05102 21.7419 7.05049C21.742 7.05023 21.7424 7.04942 21.743 7.04805C21.7433 7.04737 21.7436 7.04655 21.7441 7.04559C21.7443 7.0451 21.7445 7.04459 21.7448 7.04404C21.7449 7.04376 21.7451 7.04332 21.7452 7.04318C21.7454 7.04273 21.7456 7.04228 22.6556 7.45676C23.5657 7.87124 23.5659 7.87076 23.5661 7.87028C23.5662 7.8701 23.5664 7.8696 23.5666 7.86925C23.5669 7.86855 23.5672 7.86781 23.5676 7.86703C23.5683 7.86547 23.5691 7.86374 23.5699 7.86186C23.5716 7.8581 23.5735 7.85371 23.5757 7.8487C23.5801 7.83869 23.5854 7.82617 23.5916 7.81126C23.6039 7.78145 23.6197 7.74193 23.6376 7.69342C23.6735 7.59656 23.7185 7.46287 23.7632 7.2981C23.852 6.97019 23.9419 6.50919 23.9494 5.9645C23.9647 4.85522 23.6343 3.42144 22.3342 2.12132L20.92 3.53553ZM21.9485 6.74965L7.54926 21.1489L8.96348 22.5631L23.3627 8.16387L21.9485 6.74965ZM8.13722 20.8631L1.70898 21.6345L1.94727 23.6203L8.37551 22.8489L8.13722 20.8631ZM2.821 22.7466L3.59239 16.3183L1.60664 16.08L0.835248 22.5083L2.821 22.7466ZM3.30662 16.9063L17.7059 2.50701L16.2917 1.0928L1.89241 15.4921L3.30662 16.9063ZM13.5598 5.23872L18.9473 10.6262L20.3615 9.21199L14.9741 3.82451L13.5598 5.23872Z" fill="#2D2C42"/>
</svg>
