<svg width="25" height="25" viewBox="0 0 25 25" fill="none" xmlns="http://www.w3.org/2000/svg">
<path d="M17.499 1.80013L17.0845 0.890075L16.9199 0.965076L16.7919 1.09303L17.499 1.80013ZM23.1559 7.45699L23.863 8.16409L23.9909 8.03614L24.0659 7.87147L23.1559 7.45699ZM8.75661 21.8563L8.87576 22.8491L9.21916 22.8079L9.46372 22.5634L8.75661 21.8563ZM2.32837 22.6276L1.33549 22.5085L1.18385 23.7722L2.44751 23.6205L2.32837 22.6276ZM3.09976 16.1994L2.39265 15.4923L2.14809 15.7369L2.10688 16.0803L3.09976 16.1994ZM17.499 1.80013C17.9135 2.71019 17.913 2.7104 17.9126 2.7106C17.9125 2.71067 17.912 2.71087 17.9117 2.71099C17.9112 2.71124 17.9107 2.71147 17.9102 2.71169C17.9092 2.71212 17.9084 2.71249 17.9077 2.7128C17.9064 2.7134 17.9056 2.71376 17.9053 2.71387C17.9048 2.7141 17.9064 2.71338 17.9101 2.71184C17.9176 2.70874 17.9333 2.70238 17.9567 2.69375C18.0035 2.67642 18.0798 2.65031 18.1806 2.62301C18.3838 2.56796 18.6758 2.51091 19.0189 2.50618C19.685 2.49699 20.5654 2.68089 21.4203 3.53576L22.8345 2.12155C21.5343 0.821423 20.1006 0.491065 18.9913 0.506366C18.4466 0.513879 17.9856 0.603753 17.6577 0.692582C17.4929 0.737216 17.3592 0.782275 17.2624 0.81813C17.2138 0.836087 17.1743 0.851826 17.1445 0.864179C17.1296 0.870359 17.1171 0.875702 17.1071 0.880063C17.1021 0.882243 17.0977 0.88418 17.0939 0.885854C17.092 0.886692 17.0903 0.887464 17.0888 0.888168C17.088 0.88852 17.0872 0.888855 17.0865 0.889173C17.0862 0.889332 17.0857 0.889558 17.0855 0.889637C17.085 0.889858 17.0845 0.890075 17.499 1.80013ZM21.4203 3.53576C22.2751 4.39063 22.459 5.27102 22.4498 5.93715C22.4451 6.28017 22.388 6.5722 22.333 6.77539C22.3057 6.87617 22.2796 6.95253 22.2623 6.99935C22.2536 7.02268 22.2473 7.03841 22.2442 7.04588C22.2426 7.04961 22.2419 7.05125 22.2421 7.05072C22.2423 7.05046 22.2426 7.04965 22.2432 7.04828C22.2435 7.0476 22.2439 7.04678 22.2443 7.04581C22.2445 7.04533 22.2448 7.04482 22.245 7.04427C22.2451 7.04399 22.2453 7.04355 22.2454 7.04341C22.2456 7.04296 22.2458 7.04251 23.1559 7.45699C24.0659 7.87147 24.0662 7.87099 24.0664 7.87051C24.0665 7.87033 24.0667 7.86983 24.0668 7.86948C24.0672 7.86878 24.0675 7.86804 24.0678 7.86726C24.0685 7.86569 24.0693 7.86397 24.0702 7.86209C24.0718 7.85833 24.0738 7.85394 24.0759 7.84893C24.0803 7.83891 24.0857 7.8264 24.0918 7.81149C24.1042 7.78168 24.1199 7.74216 24.1379 7.69365C24.1737 7.59679 24.2188 7.46309 24.2634 7.29833C24.3523 6.97042 24.4421 6.50942 24.4496 5.96473C24.4649 4.85544 24.1346 3.42167 22.8345 2.12155L21.4203 3.53576ZM22.4488 6.74988L8.04951 21.1491L9.46372 22.5634L23.863 8.16409L22.4488 6.74988ZM8.63747 20.8634L2.20922 21.6348L2.44751 23.6205L8.87576 22.8491L8.63747 20.8634ZM3.32125 22.7468L4.09264 16.3185L2.10688 16.0803L1.33549 22.5085L3.32125 22.7468ZM3.80687 16.9065L18.2061 2.50724L16.7919 1.09303L2.39265 15.4923L3.80687 16.9065ZM14.0601 5.23895L19.4476 10.6264L20.8618 9.21221L15.4743 3.82473L14.0601 5.23895Z" fill="#2D2C42"/>
</svg>
