<svg width="16" height="16" viewBox="0 0 16 16" fill="none" xmlns="http://www.w3.org/2000/svg">
<path d="M3.90026 10.7202C4.11391 11.0201 4.53019 11.09 4.83006 10.8763C5.12992 10.6627 5.19982 10.2464 4.98617 9.94652L3.90026 10.7202ZM11.0135 9.94652C10.7999 10.2464 10.8698 10.6627 11.1696 10.8763C11.4695 11.09 11.8858 11.0201 12.0994 10.7202L11.0135 9.94652ZM12.2314 13.1518C11.9471 13.3857 11.9061 13.8058 12.14 14.0902C12.3739 14.3745 12.794 14.4155 13.0784 14.1816L12.2314 13.1518ZM3.39856 14.5451C3.69959 14.7571 4.11548 14.6849 4.32748 14.3839C4.53947 14.0828 4.46728 13.6669 4.16624 13.4549L3.39856 14.5451ZM6.40773 14.1886L5.74776 14.2829L6.40773 14.1886ZM9.59195 14.1886L10.2519 14.2829L9.59195 14.1886ZM9.78242 12.8552L9.12246 12.761L9.78242 12.8552ZM6.21725 12.8552L6.87722 12.761L6.21725 12.8552ZM4.33317 7.90911C4.33317 5.94753 5.9614 4.33335 7.99984 4.33335V3.00002C5.25181 3.00002 2.99984 5.18464 2.99984 7.90911H4.33317ZM7.99984 4.33335C10.0383 4.33335 11.6665 5.94753 11.6665 7.90911H12.9998C12.9998 5.18464 10.7479 3.00002 7.99984 3.00002V4.33335ZM4.98617 9.94652C4.57382 9.36775 4.33317 8.66633 4.33317 7.90911H2.99984C2.99984 8.95462 3.33344 9.92462 3.90026 10.7202L4.98617 9.94652ZM11.6665 7.90911C11.6665 8.66633 11.4259 9.36775 11.0135 9.94652L12.0994 10.7202C12.6662 9.92462 12.9998 8.95462 12.9998 7.90911H11.6665ZM1.33317 8.00002C1.33317 4.31812 4.31794 1.33335 7.99984 1.33335V2.03252e-05C3.58156 2.03252e-05 -0.00016278 3.58174 -0.00016278 8.00002H1.33317ZM7.99984 1.33335C11.6817 1.33335 14.6665 4.31812 14.6665 8.00002H15.9998C15.9998 3.58174 12.4181 2.03252e-05 7.99984 2.03252e-05V1.33335ZM14.6665 8.00002C14.6665 10.0749 13.7194 11.928 12.2314 13.1518L13.0784 14.1816C14.8611 12.7154 15.9998 10.4904 15.9998 8.00002H14.6665ZM4.16624 13.4549C2.45133 12.2473 1.33317 10.2542 1.33317 8.00002H-0.00016278C-0.00016278 10.7063 1.34421 13.0984 3.39856 14.5451L4.16624 13.4549ZM8.6665 8.00002C8.6665 8.36821 8.36803 8.66669 7.99984 8.66669V10C9.10441 10 9.99984 9.10459 9.99984 8.00002H8.6665ZM7.99984 8.66669C7.63165 8.66669 7.33317 8.36821 7.33317 8.00002H5.99984C5.99984 9.10459 6.89527 10 7.99984 10V8.66669ZM7.33317 8.00002C7.33317 7.63183 7.63165 7.33335 7.99984 7.33335V6.00002C6.89527 6.00002 5.99984 6.89545 5.99984 8.00002H7.33317ZM7.99984 7.33335C8.36803 7.33335 8.6665 7.63183 8.6665 8.00002H9.99984C9.99984 6.89545 9.10441 6.00002 7.99984 6.00002V7.33335ZM7.53718 12H8.46249V10.6667H7.53718V12ZM9.12246 12.761L8.93198 14.0943L10.2519 14.2829L10.4424 12.9495L9.12246 12.761ZM8.27201 14.6667H7.72766V16H8.27201V14.6667ZM7.06769 14.0943L6.87722 12.761L5.55728 12.9495L5.74776 14.2829L7.06769 14.0943ZM7.72766 14.6667C7.39589 14.6667 7.11461 14.4227 7.06769 14.0943L5.74776 14.2829C5.88852 15.2682 6.73236 16 7.72766 16V14.6667ZM8.93198 14.0943C8.88506 14.4227 8.60378 14.6667 8.27201 14.6667V16C9.26732 16 10.1112 15.2682 10.2519 14.2829L8.93198 14.0943ZM8.46249 12C8.86819 12 9.17983 12.3593 9.12246 12.761L10.4424 12.9495C10.6145 11.7447 9.67959 10.6667 8.46249 10.6667V12ZM7.53718 10.6667C6.32009 10.6667 5.38516 11.7447 5.55728 12.9495L6.87722 12.761C6.81984 12.3593 7.13148 12 7.53718 12V10.6667Z" fill="#2D2C42"/>
</svg>
