<svg width="24" height="16" viewBox="0 0 24 16" fill="none" xmlns="http://www.w3.org/2000/svg">
<path d="M10.3226 10.7527C10.3226 9.54839 9.94982 8.51613 9.2043 7.65591C8.45878 6.73835 7.51255 6.1362 6.36559 5.84946C6.48029 5.10394 6.76703 4.32975 7.22581 3.52688C7.74194 2.66667 8.28674 1.9785 8.86022 1.46237L7.13979 0C2.37993 3.15412 0 6.73835 0 10.7527C0 12.2437 0.487456 13.5054 1.46237 14.5376C2.49462 15.5125 3.7276 16 5.16129 16C6.59498 16 7.79928 15.4839 8.77419 14.4516C9.80645 13.4194 10.3226 12.1864 10.3226 10.7527ZM24 10.7527C24 9.54839 23.6272 8.51613 22.8817 7.65591C22.1362 6.73835 21.19 6.1362 20.043 5.84946C20.2151 5.0466 20.5305 4.24373 20.9893 3.44086C21.5054 2.638 22.0502 1.9785 22.6237 1.46237L20.8172 0C16 3.26882 13.5914 6.85305 13.5914 10.7527C13.5914 12.1864 14.1075 13.4194 15.1398 14.4516C16.172 15.4839 17.405 16 18.8387 16C20.2151 16 21.4194 15.4839 22.4516 14.4516C23.4839 13.4194 24 12.1864 24 10.7527Z" fill="#2D2C42"/>
</svg>
