<svg width="23" height="24" viewBox="0 0 23 24" fill="none" xmlns="http://www.w3.org/2000/svg">
<path fill-rule="evenodd" clip-rule="evenodd" d="M13.6825 3.1563C13.7499 3.3034 13.7684 3.48791 13.8053 3.85692C13.8751 4.555 13.91 4.90404 14.042 5.10415C14.2608 5.43587 14.6595 5.60102 15.0488 5.5212C15.2837 5.47305 15.5552 5.25092 16.0981 4.80667C16.3852 4.57184 16.5287 4.45442 16.6803 4.39804C16.9303 4.30511 17.2075 4.31893 17.4469 4.43628C17.5922 4.50747 17.7233 4.63858 17.9856 4.90081L18.8184 5.73368C19.0809 5.99618 19.2122 6.12743 19.2834 6.27289C19.4006 6.5122 19.4144 6.78912 19.3216 7.0389C19.2652 7.19073 19.1477 7.33438 18.9126 7.6217C18.4679 8.16524 18.2455 8.437 18.1974 8.67213C18.1179 9.06113 18.2829 9.45942 18.6142 9.67823C18.8144 9.81049 19.1644 9.84549 19.8644 9.91548C20.2356 9.9526 20.4212 9.97116 20.5688 10.039C20.8102 10.15 20.9957 10.355 21.0821 10.6063C21.135 10.7599 21.135 10.9462 21.135 11.3186V12.4932C21.135 12.8659 21.135 13.0523 21.0821 13.2061C20.9956 13.4572 20.8103 13.662 20.569 13.7729C20.4213 13.8409 20.2354 13.8595 19.8636 13.8967C19.1636 13.9667 18.8137 14.0017 18.6136 14.1337C18.2819 14.3525 18.1167 14.7512 18.1965 15.1405C18.2447 15.3754 18.4668 15.6469 18.9111 16.1899C19.1459 16.4769 19.2634 16.6204 19.3197 16.7721C19.4127 17.022 19.3988 17.2992 19.2815 17.5387C19.2103 17.684 19.0792 17.8151 18.8169 18.0773L17.9833 18.911L17.9833 18.911C17.7215 19.1727 17.5907 19.3036 17.4457 19.3747C17.2059 19.4924 16.9283 19.5063 16.678 19.413C16.5267 19.3567 16.3834 19.2395 16.097 19.0051C15.555 18.5617 15.284 18.34 15.0497 18.2917C14.6598 18.2114 14.2604 18.3768 14.0415 18.7093C13.9099 18.9091 13.8751 19.2579 13.8053 19.9553L13.8053 19.9553C13.7684 20.3247 13.7499 20.5093 13.6825 20.6564C13.5715 20.8989 13.3657 21.0851 13.1134 21.1715C12.9604 21.2239 12.7749 21.2239 12.4041 21.2239H11.2268C10.855 21.2239 10.6692 21.2239 10.5158 21.1712C10.264 21.0848 10.0587 20.899 9.9477 20.6571C9.88005 20.5097 9.86155 20.3248 9.82456 19.9549C9.75459 19.2551 9.7196 18.9052 9.58702 18.7047C9.36824 18.374 8.9705 18.2092 8.58191 18.2884C8.34642 18.3364 8.07427 18.5591 7.52998 19.0044L7.52996 19.0044C7.24224 19.2398 7.09837 19.3575 6.94631 19.4139C6.69677 19.5065 6.42021 19.4927 6.18112 19.3758C6.03542 19.3045 5.90399 19.1731 5.64113 18.9102L5.64111 18.9102L4.80903 18.0781C4.54643 17.8155 4.41513 17.6842 4.34391 17.5387C4.22681 17.2994 4.21301 17.0226 4.30571 16.7729C4.3621 16.621 4.47987 16.4771 4.7154 16.1892C5.15957 15.6463 5.38166 15.3749 5.42993 15.1405C5.51022 14.7507 5.34477 14.3513 5.01233 14.1324C4.81248 14.0008 4.4641 13.9659 3.76732 13.8963L3.7673 13.8963C3.39899 13.8594 3.21483 13.841 3.06798 13.7739C2.82507 13.6628 2.63854 13.4567 2.5522 13.204C2.5 13.0511 2.5 12.8661 2.5 12.4959L2.5 11.3159C2.5 10.946 2.5 10.7611 2.55211 10.6084C2.63845 10.3554 2.82511 10.1492 3.06822 10.0381C3.21497 9.97105 3.39898 9.95264 3.76699 9.91584C4.46317 9.84623 4.81126 9.81142 5.01098 9.68003C5.34376 9.46111 5.50934 9.06136 5.42883 8.67125C5.38051 8.43712 5.15841 8.16566 4.71419 7.62273C4.47823 7.33433 4.36025 7.19013 4.30385 7.03807C4.21129 6.78853 4.22509 6.51195 4.34202 6.27285C4.41326 6.12716 4.54469 5.99574 4.80754 5.73288L4.80754 5.73288L5.63883 4.90159C5.9022 4.63823 6.03388 4.50654 6.17991 4.43525C6.41869 4.31866 6.69479 4.30489 6.94398 4.39714C7.09638 4.45355 7.24064 4.57158 7.52917 4.80765C8.074 5.25342 8.34642 5.47631 8.58191 5.5243C8.9705 5.6035 9.36825 5.43875 9.58702 5.10797C9.7196 4.90752 9.75459 4.55763 9.82456 3.85786V3.85786C9.86155 3.48796 9.88005 3.303 9.94769 3.1556C10.0587 2.91371 10.264 2.7279 10.5158 2.64151C10.6692 2.58887 10.855 2.58887 11.2268 2.58887H12.4041C12.7749 2.58887 12.9604 2.58887 13.1134 2.64126C13.3657 2.72762 13.5715 2.91384 13.6825 3.1563ZM11.8132 15.6332C13.8716 15.6332 15.5402 13.9645 15.5402 11.9062C15.5402 9.84781 13.8716 8.17918 11.8132 8.17918C9.75486 8.17918 8.08623 9.84781 8.08623 11.9062C8.08623 13.9645 9.75486 15.6332 11.8132 15.6332Z" fill="#5D5FEF"/>
</svg>
