<svg width="25" height="25" viewBox="0 0 25 25" fill="none" xmlns="http://www.w3.org/2000/svg">
<path d="M18.4949 8.44102C20.1403 8.44102 21.4742 7.10714 21.4742 5.46172C21.4742 3.8163 20.1403 2.48242 18.4949 2.48242C16.8495 2.48242 15.5156 3.8163 15.5156 5.46172C15.5156 7.10714 16.8495 8.44102 18.4949 8.44102Z" stroke="#777D7F" stroke-width="1.9862" stroke-linecap="round" stroke-linejoin="round"/>
<path d="M6.58086 15.3922C8.22628 15.3922 9.56016 14.0583 9.56016 12.4129C9.56016 10.7675 8.22628 9.43359 6.58086 9.43359C4.93544 9.43359 3.60156 10.7675 3.60156 12.4129C3.60156 14.0583 4.93544 15.3922 6.58086 15.3922Z" stroke="#777D7F" stroke-width="1.9862" stroke-linecap="round" stroke-linejoin="round"/>
<path d="M18.4949 22.3443C20.1403 22.3443 21.4742 21.0105 21.4742 19.365C21.4742 17.7196 20.1403 16.3857 18.4949 16.3857C16.8495 16.3857 15.5156 17.7196 15.5156 19.365C15.5156 21.0105 16.8495 22.3443 18.4949 22.3443Z" stroke="#777D7F" stroke-width="1.9862" stroke-linecap="round" stroke-linejoin="round"/>
<path d="M9.14844 13.9121L15.9313 17.8646" stroke="#777D7F" stroke-width="1.9862" stroke-linecap="round" stroke-linejoin="round"/>
<path d="M15.9214 6.96094L9.14844 10.9135" stroke="#777D7F" stroke-width="1.9862" stroke-linecap="round" stroke-linejoin="round"/>
</svg>
