<svg width="25" height="26" viewBox="0 0 25 26" fill="none" xmlns="http://www.w3.org/2000/svg">
<path fill-rule="evenodd" clip-rule="evenodd" d="M18.7238 25.1242C18.5348 25.1242 18.3446 25.0764 18.1699 24.9782L12.0692 21.5372L5.96971 24.9782C5.56531 25.2042 5.07716 25.1655 4.71105 24.8762C4.34254 24.5868 4.15949 24.0973 4.23726 23.6129L5.39901 16.3434L0.469642 11.1961C0.141815 10.8538 0.0233672 10.3397 0.163352 9.86958C0.303336 9.402 0.677824 9.05971 1.13008 8.98996L7.94983 7.92046L10.9984 1.29937C11.4028 0.421042 12.7368 0.421042 13.1412 1.29937L16.1898 7.92046L23.0095 8.98996C23.4618 9.05971 23.8363 9.402 23.9762 9.86958C24.1162 10.3397 23.9978 10.8538 23.67 11.1961L18.7406 16.3434L19.9023 23.6129C19.9801 24.0973 19.7959 24.5868 19.4285 24.8762C19.2204 25.0415 18.9727 25.1242 18.7238 25.1242Z" fill="#D9DBE9"/>
</svg>
