<svg width="25" height="26" viewBox="0 0 25 26" fill="none" xmlns="http://www.w3.org/2000/svg">
<path fill-rule="evenodd" clip-rule="evenodd" d="M19.1535 25.1242C18.9645 25.1242 18.7743 25.0764 18.5996 24.9782L12.4989 21.5372L6.3994 24.9782C5.995 25.2042 5.50685 25.1655 5.14074 24.8762C4.77223 24.5868 4.58917 24.0973 4.66694 23.6129L5.82869 16.3434L0.89933 11.1961C0.571503 10.8538 0.453055 10.3397 0.593039 9.86958C0.733023 9.402 1.10751 9.05971 1.55977 8.98996L8.37952 7.92046L11.4281 1.29937C11.8325 0.421042 13.1665 0.421042 13.5709 1.29937L16.6195 7.92046L23.4392 8.98996C23.8915 9.05971 24.266 9.402 24.4059 9.86958C24.5459 10.3397 24.4275 10.8538 24.0996 11.1961L19.1703 16.3434L20.332 23.6129C20.4098 24.0973 20.2255 24.5868 19.8582 24.8762C19.6501 25.0415 19.4024 25.1242 19.1535 25.1242" fill="#FF9D2B"/>
</svg>
