<svg width="45" height="42" viewBox="0 0 45 42" fill="none" xmlns="http://www.w3.org/2000/svg">
<path d="M20.7136 1.5487C21.4524 0.0810797 23.5476 0.0810814 24.2864 1.5487L29.5244 11.9539C29.8188 12.5387 30.3807 12.9423 31.0288 13.0347L42.675 14.6938C44.3278 14.9292 44.9817 16.9663 43.7748 18.1197L35.3984 26.1246C34.9157 26.5858 34.695 27.2575 34.8101 27.9151L36.7944 39.2575C37.0793 40.8861 35.3775 42.1374 33.908 41.3799L23.4163 35.9723C22.8414 35.6759 22.1586 35.6759 21.5837 35.9723L11.092 41.3799C9.62247 42.1374 7.92073 40.8861 8.20563 39.2575L10.1899 27.9151C10.305 27.2575 10.0843 26.5858 9.60162 26.1246L1.22524 18.1197C0.0183244 16.9663 0.672223 14.9292 2.32495 14.6938L13.9712 13.0347C14.6193 12.9423 15.1812 12.5387 15.4756 11.9539L20.7136 1.5487Z" fill="#FFB800"/>
</svg>
