<svg width="25" height="25" viewBox="0 0 25 25" fill="none" xmlns="http://www.w3.org/2000/svg">
<path d="M11.6465 13.5608C12.037 13.9514 12.6701 13.9514 13.0607 13.5608C13.4512 13.1703 13.4512 12.5372 13.0607 12.1466L11.6465 13.5608ZM10.9393 10.0253C10.5488 9.63479 9.91566 9.63479 9.52513 10.0253C9.13461 10.4158 9.13461 11.049 9.52513 11.4395L10.9393 10.0253ZM18.7175 20.6319C19.108 21.0224 19.7412 21.0224 20.1317 20.6319C20.5223 20.2414 20.5223 19.6082 20.1317 19.2177L18.7175 20.6319ZM18.7175 17.8035C18.327 17.4129 17.6938 17.4129 17.3033 17.8035C16.9128 18.194 16.9128 18.8272 17.3033 19.2177L18.7175 17.8035ZM21.8995 16.7428L22.0409 17.7328L24.0208 17.4499L22.6066 16.0357L21.8995 16.7428ZM16.2426 22.3997L15.5355 23.1068L16.9498 24.521L17.2326 22.5411L16.2426 22.3997ZM12 18.157L11.0101 18.0156L10.9393 18.5106L11.2929 18.8642L12 18.157ZM17.6569 12.5002L18.364 11.7931L18.0104 11.4395L17.5154 11.5102L17.6569 12.5002ZM12.7071 13.2073L12.5657 12.2173L11.8232 12.3234L11.7172 13.0659L12.7071 13.2073ZM16.9498 17.4499L16.8083 16.46L16.0659 16.5661L15.9598 17.3085L16.9498 17.4499ZM13.9567 9.27011C14.1582 9.78433 14.7384 10.0378 15.2526 9.83632C15.7669 9.63482 16.0204 9.05462 15.8189 8.54041L13.9567 9.27011ZM8.04025 16.319C8.55446 16.5205 9.13466 16.267 9.33617 15.7528C9.53767 15.2386 9.28417 14.6584 8.76995 14.4569L8.04025 16.319ZM17.8152 8.17694C17.9911 8.70046 18.5581 8.98223 19.0817 8.80631C19.6052 8.63039 19.8869 8.06338 19.711 7.53986L17.8152 8.17694ZM7.03968 20.2112C7.5632 20.3871 8.1302 20.1054 8.30613 19.5818C8.48205 19.0583 8.20027 18.4913 7.67676 18.3154L7.03968 20.2112ZM13.0607 12.1466L10.9393 10.0253L9.52513 11.4395L11.6465 13.5608L13.0607 12.1466ZM20.1317 19.2177L18.7175 17.8035L17.3033 19.2177L18.7175 20.6319L20.1317 19.2177ZM16.9498 21.6926L12.7071 17.4499L11.2929 18.8642L15.5355 23.1068L16.9498 21.6926ZM16.9498 13.2073L21.1924 17.4499L22.6066 16.0357L18.364 11.7931L16.9498 13.2073ZM12.99 18.2985L13.6971 13.3487L11.7172 13.0659L11.0101 18.0156L12.99 18.2985ZM12.8485 14.1972L17.7983 13.4901L17.5154 11.5102L12.5657 12.2173L12.8485 14.1972ZM21.7581 15.7529L16.8083 16.46L17.0912 18.4399L22.0409 17.7328L21.7581 15.7529ZM15.9598 17.3085L15.2527 22.2583L17.2326 22.5411L17.9397 17.5914L15.9598 17.3085ZM7.40381 13.5608C5.84171 11.9987 5.84171 9.46606 7.40381 7.90397L5.98959 6.48975C3.64645 8.8329 3.64645 12.6319 5.98959 14.975L7.40381 13.5608ZM7.40381 7.90397C8.9659 6.34187 11.4986 6.34187 13.0607 7.90397L14.4749 6.48975C12.1317 4.14661 8.33274 4.14661 5.98959 6.48975L7.40381 7.90397ZM13.0607 7.90397C13.4642 8.30753 13.7622 8.77369 13.9567 9.27011L15.8189 8.54041C15.5257 7.79224 15.077 7.09184 14.4749 6.48975L13.0607 7.90397ZM8.76995 14.4569C8.27353 14.2624 7.80737 13.9644 7.40381 13.5608L5.98959 14.975C6.59168 15.5771 7.29208 16.0258 8.04025 16.319L8.76995 14.4569ZM4.57538 16.3893C1.45119 13.2651 1.45119 8.19976 4.57538 5.07557L3.16117 3.66135C-0.744072 7.5666 -0.744072 13.8982 3.16117 17.8035L4.57538 16.3893ZM4.57538 5.07557C7.69958 1.95137 12.7649 1.95137 15.8891 5.07557L17.3033 3.66135C13.3981 -0.243889 7.06641 -0.243889 3.16117 3.66135L4.57538 5.07557ZM15.8891 5.07557C16.7935 5.97995 17.4347 7.04458 17.8152 8.17694L19.711 7.53986C19.2343 6.1213 18.4309 4.78897 17.3033 3.66135L15.8891 5.07557ZM7.67676 18.3154C6.54439 17.9349 5.47977 17.2937 4.57538 16.3893L3.16117 17.8035C4.28878 18.9311 5.62112 19.7345 7.03968 20.2112L7.67676 18.3154Z" fill="currentColor"/>
</svg>
