<svg width="38" height="37" viewBox="0 0 38 37" fill="none" xmlns="http://www.w3.org/2000/svg">
<path d="M19.25 26.0156C22.4429 26.0156 25.0312 23.4273 25.0312 20.2344C25.0312 17.0415 22.4429 14.4531 19.25 14.4531C16.0571 14.4531 13.4688 17.0415 13.4688 20.2344C13.4688 23.4273 16.0571 26.0156 19.25 26.0156Z" stroke="#79787F" stroke-width="2.3125" stroke-linecap="round" stroke-linejoin="round"/>
<path d="M29.0781 16.7656C30.4248 16.7634 31.7533 17.0758 32.9578 17.6781C34.1623 18.2803 35.2094 19.1557 36.0156 20.2344" stroke="#79787F" stroke-width="2.3125" stroke-linecap="round" stroke-linejoin="round"/>
<path d="M2.48438 20.2344C3.29057 19.1557 4.33767 18.2803 5.54216 17.6781C6.74666 17.0758 8.07521 16.7634 9.42188 16.7656" stroke="#79787F" stroke-width="2.3125" stroke-linecap="round" stroke-linejoin="round"/>
<path d="M10.9258 31.219C11.6872 29.6596 12.8713 28.3454 14.3431 27.4262C15.815 26.5069 17.5154 26.0195 19.2508 26.0195C20.9861 26.0195 22.6866 26.5069 24.1584 27.4262C25.6303 28.3454 26.8144 29.6596 27.5758 31.219" stroke="#79787F" stroke-width="2.3125" stroke-linecap="round" stroke-linejoin="round"/>
<path d="M9.42266 16.7656C8.54484 16.7665 7.68489 16.5176 6.9433 16.0479C6.2017 15.5782 5.60909 14.9071 5.23471 14.1132C4.86032 13.3192 4.71962 12.4351 4.82905 11.5641C4.93848 10.6931 5.29351 9.87126 5.85267 9.19456C6.41183 8.51787 7.15203 8.01428 7.98676 7.74264C8.8215 7.471 9.7163 7.44252 10.5666 7.66053C11.4169 7.87854 12.1877 8.33404 12.7887 8.97381C13.3898 9.61357 13.7964 10.4112 13.9609 11.2734" stroke="#79787F" stroke-width="2.3125" stroke-linecap="round" stroke-linejoin="round"/>
<path d="M24.5391 11.2734C24.7037 10.4112 25.1102 9.61357 25.7113 8.97381C26.3124 8.33404 27.0831 7.87854 27.9334 7.66053C28.7837 7.44252 29.6785 7.471 30.5132 7.74264C31.348 8.01428 32.0882 8.51787 32.6473 9.19456C33.2065 9.87126 33.5615 10.6931 33.671 11.5641C33.7804 12.4351 33.6397 13.3192 33.2653 14.1132C32.8909 14.9071 32.2983 15.5782 31.5567 16.0479C30.8151 16.5176 29.9552 16.7665 29.0773 16.7656" stroke="#79787F" stroke-width="2.3125" stroke-linecap="round" stroke-linejoin="round"/>
</svg>
