<svg width="16" height="16" viewBox="0 0 16 16" fill="none" xmlns="http://www.w3.org/2000/svg">
<path d="M15.3332 8.00002C15.3332 12.0501 12.0499 15.3334 7.99984 15.3334M15.3332 8.00002C15.3332 3.94993 12.0499 0.666687 7.99984 0.666687M15.3332 8.00002H0.666504M7.99984 15.3334C3.94975 15.3334 0.666504 12.0501 0.666504 8.00002M7.99984 15.3334C7.99984 15.3334 5.33317 13.8667 5.33317 8.00002C5.33317 2.13335 7.99984 0.666687 7.99984 0.666687M7.99984 15.3334C7.99984 15.3334 10.6665 13.8667 10.6665 8.00002C10.6665 2.13335 7.99984 0.666687 7.99984 0.666687M0.666504 8.00002C0.666504 3.94993 3.94975 0.666687 7.99984 0.666687" stroke="#2D2C42" stroke-width="1.33333"/>
</svg>
